<?xml version="1.0" standalone="no"?>
<!DOCTYPE svg PUBLIC "-//W3C//DTD SVG 20010904//EN"
 "http://www.w3.org/TR/2001/REC-SVG-20010904/DTD/svg10.dtd">
<svg version="1.0" xmlns="http://www.w3.org/2000/svg"
 width="2048.000000pt" height="2048.000000pt" viewBox="0 0 2048.000000 2048.000000"
 preserveAspectRatio="xMidYMid meet">
<metadata>
Created by potrace 1.16, written by Peter Selinger 2001-2019
</metadata>
<g transform="translate(0.000000,2048.000000) scale(0.100000,-0.100000)"
fill="#000000" stroke="none">
<path d="M10575 17343 c-85 -10 -247 -48 -316 -73 -106 -39 -241 -109 -234
-120 3 -5 0 -7 -7 -5 -19 7 -150 -85 -248 -174 -98 -88 -195 -205 -184 -222 4
-7 3 -9 -3 -6 -15 9 -35 -17 -27 -36 3 -8 1 -18 -5 -22 -7 -3 -8 0 -5 9 11 28
-4 17 -26 -19 -12 -19 -18 -40 -14 -46 4 -7 3 -9 -3 -6 -14 9 -81 -122 -123
-238 -18 -49 -34 -91 -35 -93 -2 -2 -38 25 -81 60 -92 74 -279 180 -411 232
-192 76 -360 107 -601 108 -180 1 -278 -9 -412 -42 -41 -10 -94 -21 -117 -25
-47 -7 -70 -28 -79 -72 -6 -28 -3 -32 27 -41 19 -6 61 -14 94 -18 84 -9 225
-57 322 -109 77 -41 191 -122 192 -137 1 -7 -63 -3 -174 12 -84 10 -373 -3
-495 -23 -313 -53 -685 -223 -922 -422 -48 -40 -66 -61 -62 -73 4 -12 3 -13
-3 -4 -7 10 -28 -6 -81 -63 -72 -75 -72 -75 -59 -108 16 -39 46 -45 126 -24
105 28 296 58 351 55 l55 -3 -70 -34 c-146 -72 -296 -193 -533 -430 -192 -192
-315 -291 -500 -400 -190 -112 -390 -180 -591 -202 -58 -6 -114 -15 -123 -20
-26 -14 -33 -55 -14 -84 46 -71 240 -179 378 -210 40 -9 78 -18 83 -20 6 -1
-3 -8 -18 -14 -30 -12 -177 -117 -177 -127 0 -3 7 -3 16 0 9 3 12 2 9 -5 -4
-6 -13 -8 -21 -5 -28 11 -247 -209 -378 -378 -35 -45 -93 -131 -129 -191 -98
-163 -198 -399 -181 -426 4 -7 3 -9 -3 -6 -17 10 -83 -243 -83 -317 0 -31 20
-54 53 -62 25 -6 34 1 90 61 43 46 63 76 64 97 2 16 -1 27 -6 23 -5 -3 -13 -1
-16 5 -4 6 -3 10 2 9 22 -4 25 2 7 16 -14 11 -16 15 -4 15 12 0 11 3 -3 11 -9
6 -15 15 -11 21 4 7 10 5 16 -3 8 -11 9 -11 5 1 -5 18 39 64 48 50 4 -6 11 -8
16 -5 8 6 14 -23 10 -52 -1 -7 3 -13 9 -13 6 0 8 5 5 10 -3 6 -1 10 4 10 19 0
12 -25 -12 -40 -12 -8 -25 -13 -30 -12 -4 1 -6 -4 -5 -10 2 -7 -4 -11 -12 -10
-8 2 -12 0 -8 -4 4 -4 2 -14 -5 -23 -6 -8 14 6 45 33 32 27 55 53 52 58 -3 5
-2 7 3 6 4 -1 19 4 31 11 13 7 26 11 28 8 2 -2 -11 -30 -30 -61 -32 -54 -81
-170 -125 -299 -27 -77 -79 -310 -96 -427 -21 -139 -19 -174 8 -206 38 -44 66
-29 136 74 60 89 106 142 124 142 12 0 3 -348 -13 -470 -18 -142 -61 -340 -92
-428 -16 -45 -26 -88 -22 -95 4 -7 3 -9 -1 -4 -5 4 -31 -39 -59 -95 -46 -93
-54 -104 -83 -109 -18 -4 -31 -3 -28 1 8 14 -243 87 -425 124 -190 39 -286 48
-495 48 -277 -1 -394 -20 -412 -69 -7 -18 10 -49 26 -45 6 1 10 -3 9 -9 -2 -6
25 -21 59 -33 34 -13 74 -31 88 -40 25 -17 33 -36 15 -36 -5 0 -10 5 -10 10 0
19 -296 6 -465 -21 -135 -21 -319 -71 -447 -121 -71 -28 -126 -53 -124 -56 3
-2 19 1 37 7 36 13 39 11 42 -17 1 -13 11 -23 27 -27 22 -6 17 -11 -54 -47
-67 -34 -83 -38 -103 -29 -13 6 -21 16 -18 21 3 6 1 10 -4 10 -6 0 -11 -4 -11
-10 0 -16 -17 -12 -24 6 -4 9 -1 23 5 30 9 11 9 14 0 14 -6 0 -16 -10 -21 -22
-5 -13 -9 -17 -9 -10 -1 10 -6 10 -22 2 -16 -9 -20 -19 -17 -57 5 -82 26 -80
193 15 28 16 70 36 95 45 370 134 544 164 889 153 215 -7 231 -4 231 38 0 35
-58 125 -100 154 -22 15 -39 29 -40 32 0 8 155 1 365 -16 199 -15 375 -48 567
-105 115 -35 138 -49 138 -91 0 -27 2 -28 44 -28 88 0 279 82 260 112 -5 7 -3
8 5 4 7 -5 21 0 32 10 29 26 23 7 -31 -103 -45 -90 -65 -143 -40 -103 19 31
20 0 0 -35 -11 -20 -19 -42 -16 -49 3 -7 5 -7 5 2 1 6 5 12 11 12 6 0 6 -9 1
-23 -5 -13 -7 -35 -4 -50 3 -16 1 -27 -6 -27 -6 0 -10 8 -9 18 2 32 -2 52 -12
52 -5 0 -10 -6 -10 -14 0 -8 -7 -16 -15 -20 -11 -4 -8 9 11 47 14 29 21 48 16
42 -16 -14 -142 -265 -141 -278 0 -7 8 5 18 25 10 21 20 41 24 44 6 6 5 0 -8
-56 -4 -18 -2 -16 9 8 18 38 25 41 22 8 -2 -17 1 -23 10 -19 9 3 14 -2 14 -15
0 -11 -6 -23 -12 -25 -8 -3 -6 -6 5 -6 9 -1 17 -7 17 -13 0 -7 55 97 121 232
117 237 175 368 165 377 -2 2 -11 -18 -21 -46 -12 -38 -21 -49 -36 -48 -11 1
-17 7 -15 14 3 7 -1 19 -9 27 -8 8 -15 24 -15 35 0 25 -19 38 -31 20 -6 -10
-9 -11 -9 -1 0 6 -7 12 -16 12 -11 0 -14 6 -9 21 6 18 4 20 -14 14 -13 -4 -21
-2 -21 5 0 8 -8 7 -25 -4 -46 -30 -74 -15 -36 21 10 10 32 57 50 104 32 88 41
130 15 70 l-14 -34 -25 29 c-16 18 -20 31 -13 35 6 4 7 12 3 19 -5 8 -4 11 2
7 7 -4 10 3 9 17 -1 26 -22 24 -29 -2 -2 -10 -2 -1 0 18 3 19 11 48 19 65 l14
30 -5 -36 c-4 -28 -2 -38 10 -43 9 -3 14 -2 11 2 -3 5 -1 22 4 38 5 17 9 21 9
11 1 -10 5 -16 9 -13 12 7 10 -38 -2 -47 -7 -5 -4 -6 7 -3 16 5 18 2 13 -27
-16 -86 37 79 59 183 50 241 59 331 59 601 1 241 0 258 -19 278 -25 29 -48 23
-153 -41 -46 -27 -86 -48 -88 -46 -2 3 3 22 10 44 8 21 27 93 41 159 15 66 43
163 62 215 41 108 147 316 209 407 45 65 47 88 13 119 -18 16 -22 16 -81 -6
-68 -24 -213 -118 -291 -187 -43 -37 -51 -41 -63 -28 -16 16 -24 43 -26 88 -1
30 12 50 19 29 3 -6 10 -9 15 -6 6 4 8 2 4 -4 -3 -5 -1 -12 6 -14 6 -2 8 -10
4 -17 -6 -9 -11 -9 -19 4 -10 13 -12 12 -13 -10 -1 -14 3 -25 8 -25 6 0 8 -7
4 -15 -3 -8 -2 -15 2 -15 4 0 25 48 47 107 46 129 126 286 203 403 31 47 56
90 56 97 -1 7 2 11 6 10 4 -1 55 54 112 123 155 184 274 283 532 441 l141 87
0 38 0 39 -170 6 c-180 6 -244 20 -345 73 l-45 24 30 7 c186 41 487 149 483
174 0 3 0 13 2 21 1 12 3 11 8 -2 7 -17 11 -16 57 8 71 38 203 124 282 185 37
29 169 152 293 273 237 233 342 316 490 391 80 40 262 105 296 105 8 0 29 7
45 16 25 13 30 20 27 47 -3 29 -8 33 -61 49 -120 36 -361 46 -532 22 l-40 -6
45 41 c74 68 211 155 342 220 249 122 541 191 812 191 107 0 373 -27 451 -45
57 -14 61 -13 78 6 27 34 21 72 -21 126 -86 108 -217 208 -359 275 -62 29 -82
43 -74 51 16 16 282 21 394 8 227 -26 431 -96 627 -214 115 -68 155 -81 145
-44 -5 19 -5 20 5 4 6 -9 8 -22 5 -28 -4 -6 0 -9 11 -7 11 2 18 -1 17 -7 0 -5
6 -17 15 -25 14 -13 15 -12 9 4 -4 10 -7 27 -7 37 0 11 -4 18 -9 14 -5 -3 -12
-1 -15 4 -12 19 16 23 35 5 10 -9 19 -12 19 -6 0 6 7 9 16 5 13 -5 13 -7 2
-14 -10 -6 -8 -9 7 -9 11 0 16 -4 10 -8 -11 -8 -13 -71 -2 -89 4 -6 4 -18 1
-26 -6 -17 53 -67 79 -67 24 0 42 34 67 130 24 92 65 202 106 282 21 41 23 53
12 60 -10 8 -9 9 4 4 12 -3 24 8 43 40 14 24 23 49 19 56 -4 6 -3 8 4 5 5 -4
33 21 60 55 28 35 75 88 106 118 33 32 51 57 45 61 -7 4 -5 9 6 12 9 4 13 3
10 -3 -12 -20 7 -9 63 37 117 95 237 160 405 217 142 49 155 43 82 -35 -115
-125 -229 -311 -301 -490 -48 -122 -107 -340 -101 -373 4 -20 4 -20 6 2 0 12
6 22 11 22 6 0 10 -6 9 -12 -6 -47 1 -58 35 -58 36 0 62 22 50 41 -4 7 -3 9 3
6 15 -9 57 39 48 54 -5 7 -4 10 2 6 5 -3 45 32 87 79 43 47 103 104 134 127
30 23 75 57 100 75 178 134 423 235 691 286 98 19 328 21 452 5 88 -12 137
-28 86 -29 -34 0 -90 -28 -182 -90 -105 -71 -169 -131 -153 -142 9 -6 6 -7 -9
-3 -18 5 -34 -9 -97 -80 -87 -100 -146 -186 -146 -212 0 -14 2 -15 9 -5 7 11
9 11 14 -2 3 -8 1 -16 -6 -19 -6 -2 1 -11 15 -21 27 -17 29 -17 131 18 293
101 607 121 902 58 309 -67 488 -160 990 -515 130 -92 418 -244 560 -296 288
-104 456 -148 675 -176 189 -24 184 -21 99 -67 -112 -60 -234 -88 -420 -96
-154 -7 -189 -16 -189 -46 0 -6 5 -4 10 4 6 10 10 11 10 3 0 -16 31 -53 44
-53 6 0 5 5 -1 11 -13 13 -5 42 9 33 6 -4 5 -10 -3 -15 -11 -7 -10 -9 3 -9 11
0 15 -5 12 -15 -7 -18 12 -20 19 -2 4 9 8 8 16 -3 6 -9 11 -10 11 -3 0 6 9 9
20 6 14 -4 20 0 20 11 0 15 2 15 24 -1 13 -10 22 -22 19 -26 -3 -5 -11 0 -19
10 -14 17 -15 16 -9 -7 4 -14 3 -20 -2 -15 -4 6 -33 10 -63 10 -66 1 -107 11
-113 28 -2 7 -3 6 -3 -3 2 -20 53 -34 221 -60 287 -46 614 -165 849 -312 333
-208 619 -517 722 -780 23 -57 25 -71 14 -78 -8 -5 -18 -6 -22 -4 -4 3 -5 -1
-2 -9 4 -10 -2 -14 -20 -14 -14 0 -26 3 -26 8 0 5 7 9 15 9 8 0 15 4 15 9 0 5
10 11 23 13 20 3 17 7 -21 32 -36 25 -45 27 -54 15 -8 -11 -9 -11 -4 4 4 13
-9 23 -62 48 -198 90 -344 107 -341 40 0 -11 3 -9 9 7 5 12 14 22 20 22 6 0 8
-4 5 -10 -3 -5 -1 -10 4 -10 6 0 11 -6 11 -14 0 -8 7 -17 16 -20 8 -3 12 -2 9
3 -3 5 -1 12 5 16 5 3 10 -3 10 -14 0 -12 4 -21 9 -21 6 0 9 -9 8 -20 -1 -23
-17 -28 -17 -5 0 8 -4 15 -10 15 -5 0 -10 -7 -10 -15 0 -22 -9 -19 -41 15 -16
16 -29 26 -29 22 0 -15 86 -92 95 -85 4 5 5 2 0 -6 -4 -7 -4 -16 1 -20 18 -12
122 -138 176 -211 222 -304 339 -609 435 -1132 7 -35 -10 -36 -39 -3 -12 14
-28 23 -36 20 -7 -2 -11 -1 -7 4 11 19 -144 121 -183 121 -29 0 -62 -34 -62
-62 0 -19 3 -17 18 12 10 21 26 36 39 38 27 4 86 -25 78 -38 -3 -6 1 -7 9 -4
11 4 19 -2 25 -17 5 -13 10 -18 10 -11 1 7 6 10 11 7 6 -4 7 -11 4 -17 -4 -7
-2 -8 4 -4 8 5 11 -1 10 -18 -1 -15 -6 -26 -10 -26 -4 0 -8 -6 -8 -14 0 -8 -4
-18 -10 -21 -5 -3 -7 0 -4 8 3 8 0 18 -6 22 -6 4 -9 1 -8 -7 2 -8 -7 -13 -27
-13 -23 0 -29 -4 -27 -18 2 -10 -3 -16 -10 -15 -7 2 -14 -4 -14 -12 -5 -47 -4
-46 -18 -27 -7 9 -18 17 -24 17 -6 0 -13 15 -15 33 -2 17 -2 -6 0 -53 15 -303
131 -801 250 -1072 33 -77 101 -198 110 -198 3 0 -4 16 -16 36 -22 37 -27 59
-12 49 6 -3 14 3 20 12 6 10 11 12 11 6 0 -7 7 -13 16 -13 9 0 12 5 8 13 -5 9
-4 9 5 1 9 -9 7 -19 -9 -46 l-21 -36 21 -5 c11 -3 20 -11 20 -17 0 -10 -4 -10
-15 0 -13 11 -14 10 -9 -5 5 -13 4 -16 -5 -11 -8 5 -7 -3 4 -24 9 -17 19 -30
22 -27 2 3 0 15 -7 26 -7 14 -7 21 0 21 10 0 14 -18 12 -50 -1 -18 48 -84 56
-75 4 3 0 10 -8 15 -13 8 -12 10 3 10 18 0 22 -17 8 -38 -6 -11 -31 -3 -111
37 -57 27 -108 47 -113 44 -6 -3 -7 -1 -3 5 7 11 -47 55 -58 47 -3 -3 -4 -2
-1 2 6 8 -14 33 -27 33 -5 0 -6 -6 -2 -12 5 -9 3 -9 -9 1 -9 7 -15 17 -12 21
3 4 -3 14 -12 21 -14 12 -16 12 -8 0 5 -10 4 -12 -4 -7 -6 4 -9 11 -6 16 7 11
-43 50 -66 50 -9 0 -25 -7 -34 -17 -24 -23 -14 -62 50 -195 68 -143 186 -439
214 -540 12 -42 28 -114 36 -160 16 -87 21 -278 8 -278 -5 0 -30 34 -58 76
-27 41 -68 90 -90 108 -55 45 -118 86 -130 86 -5 -1 2 -7 17 -16 19 -10 26
-20 22 -32 -5 -14 -4 -15 5 -2 8 12 13 12 23 2 9 -9 9 -12 -1 -12 -7 0 -10 -4
-7 -9 4 -5 -3 -7 -14 -4 -12 3 -20 0 -20 -6 0 -7 4 -9 10 -6 6 3 7 -1 4 -9 -3
-9 -14 -16 -24 -16 -14 0 -18 -7 -15 -25 1 -14 -2 -25 -8 -25 -6 0 -5 -5 1
-13 6 -7 7 -18 3 -25 -5 -9 -16 8 -30 48 -40 108 -30 60 14 -75 79 -240 98
-343 103 -572 5 -220 -6 -303 -54 -412 -13 -29 -21 -57 -18 -62 3 -5 1 -8 -4
-7 -6 2 -24 -16 -41 -40 -38 -52 -101 -98 -179 -130 -91 -38 -222 -23 -342 38
-24 12 -41 16 -45 10 -4 -6 -10 -8 -15 -5 -4 3 -19 0 -32 -5 -23 -10 -23 -10
0 -6 14 3 22 -1 22 -10 0 -8 -4 -14 -10 -14 -5 0 -10 -7 -10 -15 0 -8 5 -15
10 -15 6 0 10 5 10 10 0 22 32 59 46 53 8 -3 14 -10 14 -15 0 -6 -7 -8 -15 -5
-8 4 -17 1 -21 -5 -4 -6 -3 -8 3 -5 5 3 10 0 10 -7 0 -9 -7 -12 -16 -8 -13 5
-14 3 -3 -10 10 -12 9 -18 -3 -28 -11 -9 -15 -9 -15 -1 0 7 -5 9 -11 6 -6 -4
-13 2 -16 14 -3 12 -10 21 -15 21 -5 0 -6 -4 -3 -10 10 -16 -5 -12 -38 12 -69
49 -78 61 -53 71 11 4 13 1 10 -11 -5 -15 -4 -15 6 1 6 9 16 15 21 11 6 -3 10
0 8 7 -3 25 1 39 11 39 5 0 8 -6 6 -12 -1 -7 -1 -10 1 -5 3 4 10 5 16 1 7 -3
-8 12 -33 33 -96 82 -173 160 -191 195 -16 32 -18 58 -17 210 1 196 -9 279
-58 457 -37 136 -101 284 -117 274 -6 -3 -7 -1 -4 5 9 14 -3 43 -14 36 -5 -3
-6 2 -2 11 7 19 14 18 138 -15 179 -49 330 5 271 96 -15 22 -45 36 -31 14 3
-5 1 -10 -5 -10 -7 0 -10 7 -7 15 7 17 -47 60 -63 50 -6 -4 -9 -1 -8 7 2 7 -5
12 -14 12 -10 -1 -16 1 -15 5 1 3 -38 44 -87 91 -49 47 -116 121 -149 165 -33
44 -63 79 -67 78 -4 -1 -7 3 -7 10 1 7 -19 55 -45 107 -99 205 -131 351 -132
605 -1 200 26 398 54 393 8 -2 37 -33 65 -70 27 -37 51 -65 53 -63 2 2 -5 17
-17 33 -12 17 -21 35 -21 40 0 6 -6 12 -12 15 -10 3 -10 7 1 20 17 21 31 22
31 2 0 -8 5 -15 11 -15 6 0 9 7 5 15 -3 8 -1 15 5 15 6 0 6 8 -1 23 -8 14 0
10 20 -13 29 -31 28 -29 -7 22 -52 77 -122 150 -135 142 -6 -4 -8 -2 -4 4 9
14 -42 52 -60 45 -11 -4 -12 -8 -4 -13 9 -6 9 -13 0 -30 -7 -12 -14 -32 -15
-44 -2 -11 -7 -31 -11 -44 -3 -13 -3 -22 2 -21 20 3 34 -2 34 -12 0 -5 -5 -7
-11 -3 -8 5 -10 -3 -7 -25 3 -22 1 -31 -9 -31 -10 0 -12 7 -8 23 5 20 5 20 -9
-3 -8 -14 -10 -26 -5 -28 15 -6 10 -19 -6 -19 -17 0 -19 19 -6 65 6 20 6 32 0
32 -5 0 -9 -2 -9 -5 0 -2 -9 -60 -19 -127 -60 -383 -21 -700 124 -988 91 -182
197 -324 308 -412 48 -37 75 -49 61 -26 -5 7 -3 8 5 4 7 -5 10 -11 7 -14 -3
-3 -1 -11 5 -19 34 -40 -138 22 -268 97 -38 22 -77 40 -85 40 -18 0 -54 -37
-45 -47 4 -3 7 0 8 8 0 9 3 7 8 -5 7 -18 8 -18 25 -1 9 10 14 20 11 23 -3 4
-10 0 -14 -7 -6 -8 -11 -9 -15 -3 -9 15 10 24 34 17 18 -6 19 -8 5 -22 -12
-12 -13 -18 -4 -29 8 -10 8 -14 0 -14 -6 0 -11 5 -11 12 0 9 -3 9 -12 0 -14
-14 -7 -23 19 -25 11 0 20 -8 19 -17 -1 -8 4 -14 10 -13 6 1 11 -4 11 -12 0
-8 -4 -12 -9 -9 -4 3 -8 1 -8 -4 0 -6 7 -12 15 -16 8 -3 15 -2 15 3 0 4 7 8
15 8 18 0 20 -13 3 -21 -10 -5 -10 -7 0 -12 17 -8 16 -80 -2 -87 -17 -7 -72
104 -63 127 8 19 -1 46 -15 46 -5 0 -7 -10 -3 -22 3 -13 -6 -3 -19 22 -50 91
-24 26 48 -118 40 -81 89 -190 110 -242 120 -315 137 -631 49 -917 -21 -67
-41 -123 -45 -123 -3 0 -23 35 -43 77 -42 88 -92 156 -107 147 -7 -5 -8 -2 -4
5 9 14 -22 53 -36 45 -4 -3 -7 0 -6 8 2 7 -3 12 -10 10 -6 -1 -11 4 -10 10 2
7 -3 12 -10 10 -8 -1 -11 2 -8 6 7 12 -28 44 -39 35 -4 -5 -5 -3 -2 4 9 15
-105 96 -187 133 -34 16 -67 34 -73 42 -6 7 -34 60 -64 118 -60 119 -117 218
-130 226 -5 3 1 -12 13 -33 13 -23 16 -34 8 -27 -8 6 -23 14 -32 17 -13 4 -15
2 -11 -10 4 -9 2 -14 -3 -11 -5 3 -15 0 -22 -8 -7 -8 -9 -14 -4 -14 5 0 9 -7
9 -15 0 -23 -11 -18 -31 15 -9 17 -51 73 -92 126 -41 52 -74 96 -74 98 0 2 11
2 25 1 13 -2 24 0 23 3 -1 4 3 17 10 29 9 16 9 24 0 29 -7 4 -8 3 -4 -4 4 -7
3 -12 -3 -12 -5 0 -9 9 -8 20 2 24 5 25 31 3 12 -10 8 -3 -8 15 -29 31 -55 44
-40 20 4 -7 3 -8 -5 -4 -6 4 -9 11 -6 16 3 4 -10 20 -27 35 -78 63 -75 59 -56
63 19 4 171 -57 246 -99 65 -36 68 -29 5 12 -27 17 -40 28 -31 25 10 -3 20 -1
23 5 4 5 11 6 17 3 6 -4 6 1 -1 14 -15 28 -14 35 4 28 8 -3 15 -1 15 5 0 14
54 -16 103 -58 31 -26 29 -23 -7 12 -70 66 -243 148 -394 186 -136 35 -197 39
-218 15 -8 -9 -9 -11 -2 -6 17 14 28 12 28 -5 0 -15 20 -17 31 -2 3 4 6 -8 7
-28 1 -35 -20 -51 -31 -22 -4 9 -6 9 -6 -1 -1 -7 7 -16 17 -20 17 -7 29 -32
15 -32 -4 0 -23 15 -42 33 -19 17 -29 23 -21 12 36 -48 55 -65 68 -60 7 2 11
1 8 -4 -3 -4 51 -64 120 -132 121 -119 243 -267 299 -363 19 -32 31 -43 43
-40 13 5 14 4 4 -4 -11 -7 -3 -30 38 -108 29 -55 71 -146 95 -204 24 -58 44
-99 45 -92 0 7 -4 21 -9 30 -6 11 -4 21 4 29 10 9 18 8 36 -7 21 -19 41 -29
25 -13 -3 4 4 12 16 19 18 10 28 9 49 -2 15 -7 30 -10 34 -6 5 4 5 2 1 -5 -7
-13 27 -36 38 -25 4 3 4 -1 1 -10 -4 -9 -2 -19 4 -23 6 -3 11 1 11 9 0 19 11
21 28 4 9 -9 12 -6 12 15 0 15 5 27 10 27 6 0 10 -4 10 -8 0 -5 7 -9 15 -9 8
0 12 4 9 9 -3 4 -1 8 4 8 5 0 12 -12 15 -27 6 -32 -6 -62 -17 -44 -4 6 -2 11
5 11 8 0 8 4 -1 15 -14 17 -30 20 -30 4 0 -5 4 -8 9 -4 6 3 9 -4 8 -15 -1 -22
-13 -27 -20 -7 -3 6 -6 4 -6 -7 -1 -19 -1 -19 -23 0 -21 17 -21 16 1 -9 24
-27 38 -36 26 -17 -9 14 9 12 24 -3 10 -10 11 -9 6 5 -5 11 -2 16 10 14 8 -1
15 -4 14 -7 -1 -2 3 -14 10 -26 9 -18 9 -23 0 -23 -7 0 -5 -8 6 -20 20 -23 11
-28 -11 -6 -8 8 -11 22 -8 30 3 9 1 16 -6 16 -6 0 -8 -4 -5 -10 3 -5 1 -10 -4
-10 -6 0 -11 5 -11 10 0 6 -5 10 -12 10 -7 0 2 -15 19 -32 52 -55 124 -168
171 -268 24 -52 59 -111 76 -130 17 -19 45 -57 61 -83 70 -112 92 -142 104
-139 7 1 10 -2 6 -8 -13 -22 126 -171 215 -231 l45 -30 -34 30 c-19 17 -31 34
-27 38 5 5 11 2 13 -4 5 -15 33 -18 33 -3 0 5 8 7 18 4 13 -5 14 -4 3 4 -7 5
-10 15 -6 22 4 7 10 8 14 4 3 -5 14 -15 24 -23 15 -12 17 -12 11 3 -8 20 0 20
31 0 14 -9 25 -14 25 -11 0 11 -82 57 -92 51 -6 -4 -8 -3 -5 3 4 6 -20 35 -54
63 -33 29 -90 93 -126 141 -37 49 -68 89 -70 89 -2 0 -1 -5 3 -12 4 -7 3 -8
-5 -4 -6 4 -9 12 -6 17 3 5 -12 39 -34 76 -22 38 -43 80 -46 94 -6 24 13 81
74 223 l21 49 29 -41 c54 -73 294 -244 321 -227 6 4 9 1 8 -6 -2 -7 27 -22 72
-37 98 -33 275 -37 360 -9 72 24 195 114 196 145 1 12 -3 25 -7 28 -5 3 -9 -1
-9 -8 0 -8 -5 -6 -11 5 -13 23 -29 22 -29 -3 0 -11 5 -20 11 -20 5 0 7 -5 3
-11 -4 -8 -10 -6 -17 6 -9 16 -11 15 -23 -11 -8 -20 -13 -23 -13 -11 -1 10 4
27 9 38 7 13 7 19 0 19 -5 0 -10 -7 -10 -15 0 -9 -6 -12 -15 -9 -11 4 -13 2
-9 -9 3 -8 1 -17 -4 -21 -5 -3 -8 3 -7 14 2 23 81 111 98 107 6 -1 20 -11 30
-21 19 -21 22 -30 7 -21 -5 3 -10 -1 -10 -9 0 -9 5 -16 11 -16 6 0 8 -7 5 -16
-5 -14 -4 -15 9 -4 9 7 14 19 11 27 -3 8 -2 12 3 8 13 -8 64 87 94 175 43 125
58 364 37 554 -9 74 -44 237 -76 356 -7 24 -6 24 12 9 10 -9 26 -14 34 -12 12
4 13 3 1 -5 -11 -8 -6 -22 25 -73 22 -35 46 -82 55 -104 9 -22 28 -48 42 -59
26 -19 27 -19 46 -2 74 67 94 410 38 646 -25 105 -69 227 -146 412 -23 54 -41
99 -41 101 0 1 9 3 19 3 11 0 17 -4 15 -8 -3 -4 13 -16 34 -27 77 -39 159 -63
237 -68 77 -5 82 -4 113 22 17 15 32 33 32 40 0 17 -90 126 -100 120 -4 -2
-16 5 -26 18 -16 18 -16 19 -1 8 10 -8 17 -9 17 -3 0 6 -5 14 -11 17 -6 4 -30
38 -54 76 -159 247 -272 582 -340 1009 -14 91 -33 198 -40 239 -8 41 -13 77
-11 79 15 14 147 -128 210 -225 25 -39 72 -45 101 -13 16 18 18 34 12 168 -10
219 -46 398 -132 657 -72 217 -185 455 -199 420 -3 -9 -2 -14 3 -11 5 3 12 -1
15 -10 9 -22 8 -26 -6 -18 -7 4 -8 3 -4 -4 4 -7 2 -12 -3 -12 -6 0 -11 -13
-11 -30 0 -17 -5 -30 -12 -30 -9 0 -8 -4 2 -10 8 -5 12 -10 7 -10 -4 0 0 -16
8 -37 26 -61 10 -47 -19 18 -15 33 -25 63 -22 66 3 4 6 1 6 -5 0 -25 15 -10
16 16 1 15 -1 21 -3 15 -3 -7 -9 -13 -14 -13 -12 0 -12 57 1 62 5 2 11 15 12
30 2 22 5 25 17 15 12 -10 13 -9 1 13 -46 88 -219 314 -203 265 3 -11 3 -17
-1 -13 -4 3 -8 13 -10 21 -1 8 -8 22 -15 31 -25 31 -5 26 75 -16 93 -48 163
-92 228 -142 53 -40 75 -44 99 -18 23 25 21 44 -8 148 -47 165 -233 499 -267
478 -7 -4 -8 -3 -4 5 10 15 -13 43 -27 34 -6 -3 -7 -1 -3 5 8 14 -72 104 -85
96 -5 -3 -8 0 -7 8 2 7 -3 12 -10 10 -8 -1 -11 1 -8 6 18 30 -246 248 -445
367 -72 43 -173 96 -223 118 -118 51 -309 116 -363 124 -40 5 -61 23 -28 23
67 0 300 125 378 202 40 41 47 53 47 87 0 34 -4 41 -22 45 -13 3 -113 7 -223
9 -169 4 -219 9 -320 31 -389 86 -742 241 -1062 468 -82 58 -100 68 -87 46 4
-7 3 -8 -5 -4 -6 4 -9 11 -6 16 6 10 -151 118 -300 206 -339 199 -702 290
-1049 263 -72 -5 -184 -19 -250 -30 -65 -11 -121 -17 -124 -14 -4 3 8 19 25
35 17 16 39 40 50 53 56 72 264 195 443 262 81 31 100 46 100 82 0 34 -46 58
-163 82 -377 78 -788 38 -1107 -106 -30 -14 -65 -29 -78 -34 -32 -12 -189
-105 -230 -136 -18 -13 -29 -29 -26 -35 4 -7 2 -8 -5 -4 -12 8 -133 -88 -159
-126 -7 -10 -17 -16 -22 -13 -18 11 74 219 147 333 18 29 31 57 27 63 -3 5 -1
8 5 7 6 -2 39 31 74 72 34 41 105 111 157 154 109 91 129 126 91 157 -23 19
-74 22 -156 12z m5375 -4279 c15 -55 24 -100 20 -102 -5 -2 -4 -16 0 -33 9
-32 -3 -40 -19 -11 -6 9 -11 11 -11 5 0 -7 -5 -13 -11 -13 -5 0 -7 5 -4 10 3
6 -1 10 -9 10 -10 0 -13 -6 -10 -15 4 -8 2 -15 -4 -15 -5 0 -17 29 -26 65 -19
74 -20 88 -6 80 6 -3 7 1 4 9 -3 9 -10 13 -15 10 -5 -3 -9 0 -9 5 0 6 8 11 18
11 15 0 15 2 2 10 -13 9 -13 12 3 24 9 7 17 16 17 20 0 9 24 35 28 31 2 -1 16
-47 32 -101z m-1243 -2509 c31 -30 52 -55 46 -55 -6 0 -14 -12 -18 -27 -3 -15
-14 -33 -23 -41 -9 -7 -11 -11 -4 -7 6 3 12 1 12 -5 0 -16 -11 -11 -65 35 -60
51 -90 91 -74 101 7 4 9 3 5 -4 -4 -7 1 -10 14 -9 12 1 20 8 20 19 0 10 6 17
13 16 6 -2 11 5 9 15 -4 26 4 21 65 -38z"/>
<path d="M13800 14593 c0 -38 4 -43 95 -110 44 -33 131 -111 194 -174 63 -63
118 -113 123 -111 5 1 7 -2 3 -8 -3 -5 13 -33 36 -60 32 -37 45 -47 52 -38 6
9 7 8 3 -5 -4 -12 12 -42 48 -90 59 -79 185 -285 235 -385 67 -132 125 -302
158 -462 l6 -25 -29 26 c-63 56 -263 180 -289 179 -5 -1 15 -14 46 -30 54 -28
60 -36 50 -80 -1 -3 -8 4 -16 14 -8 11 -15 16 -15 11 0 -5 8 -17 17 -27 17
-19 16 -19 -10 -13 -18 5 -27 3 -27 -4 0 -8 -5 -9 -19 -1 -11 5 -23 10 -28 10
-4 0 24 -19 62 -42 88 -52 173 -119 250 -197 62 -64 99 -77 125 -46 34 41 -33
392 -112 582 -12 29 -23 51 -25 49 -2 -2 4 -22 13 -45 19 -49 6 -76 -33 -68
-12 2 -20 0 -17 -4 3 -5 1 -9 -5 -9 -6 0 -14 12 -17 28 -4 15 -11 32 -16 39
-5 7 -7 16 -4 22 3 5 -1 11 -8 14 -10 4 -14 20 -13 56 1 27 5 47 10 44 4 -2 5
-8 2 -13 -3 -4 4 -10 15 -13 11 -3 23 0 27 5 3 6 1 8 -4 5 -6 -4 -13 0 -17 8
-8 23 14 29 29 9 27 -36 15 -1 -27 77 -23 43 -46 75 -51 72 -6 -3 -7 -1 -3 5
9 14 -78 158 -93 154 -7 -1 -10 2 -6 7 8 14 -65 122 -78 114 -6 -3 -7 -1 -3 6
9 14 -12 43 -24 36 -5 -3 -12 0 -16 6 -4 8 -3 9 4 5 19 -12 14 3 -14 40 -14
18 -30 31 -35 28 -5 -3 -8 -1 -7 5 5 16 -98 126 -230 247 -122 110 -142 125
-142 104 0 -5 7 -10 16 -10 9 0 12 -5 8 -12 -4 -6 -3 -8 3 -5 15 9 179 -141
175 -159 -2 -9 2 -22 9 -30 13 -16 2 -19 -20 -5 -8 5 -11 16 -8 25 3 8 1 18
-5 22 -6 4 -9 3 -6 -2 3 -5 0 -15 -8 -21 -9 -9 -15 -10 -20 -2 -3 6 -2 14 4
18 6 4 5 10 -4 18 -8 8 -15 9 -19 3 -3 -6 0 -10 7 -10 10 0 10 -2 -1 -9 -11
-7 -9 -14 12 -35 15 -14 32 -25 39 -24 7 2 13 -5 13 -14 0 -9 4 -20 8 -24 4
-4 7 -12 7 -18 0 -6 -60 47 -134 119 -74 71 -133 132 -130 134 2 2 10 -2 18
-9 9 -6 21 -10 28 -7 8 4 7 6 -4 6 -10 1 -18 6 -18 12 0 6 7 9 15 6 8 -4 17
-2 20 2 2 5 -6 12 -20 15 -14 4 -25 11 -25 17 0 8 4 8 14 0 11 -9 15 -8 20 4
9 24 -78 75 -126 75 -35 0 -38 -2 -38 -27z m1053 -1475 c5 -37 -1 -43 -33 -40
-3 0 -7 -13 -8 -29 -1 -16 2 -29 8 -29 6 0 10 6 9 13 -3 24 1 37 12 37 5 0 7
-4 4 -10 -3 -5 0 -10 7 -11 10 0 10 -2 1 -6 -7 -2 -13 -9 -13 -14 0 -6 5 -7
10 -4 6 3 10 1 10 -5 0 -7 -7 -9 -16 -6 -11 4 -15 0 -14 -17 3 -37 1 -45 -17
-50 -10 -3 -7 -4 8 -4 21 1 25 6 24 27 -1 16 4 27 12 27 7 0 13 -6 13 -14 0
-7 -4 -13 -10 -13 -5 0 -10 -5 -10 -11 0 -5 4 -8 9 -5 5 4 7 -3 4 -14 -4 -14
-12 -19 -29 -17 -28 4 -66 36 -57 50 3 6 1 7 -6 3 -7 -5 -22 3 -37 21 -29 33
-28 32 -7 62 9 14 11 21 5 17 -7 -4 -12 -2 -12 3 0 6 9 11 19 11 11 0 23 9 26
20 3 11 11 20 16 20 5 0 9 5 9 11 0 5 -5 7 -12 3 -6 -4 -8 -3 -5 4 9 13 30 10
52 -8 16 -14 17 -13 10 10 -5 17 -4 22 3 15 6 -5 12 -27 15 -47z"/>
<path d="M6499 14263 c-1 -5 -1 -11 -1 -14 1 -4 -5 -6 -12 -5 -13 1 -87 -61
-101 -85 -5 -8 5 -2 22 14 16 15 32 24 36 20 11 -11 8 -43 -5 -43 -6 0 -8 -3
-4 -7 4 -5 14 0 21 10 12 17 13 16 11 -11 -2 -35 -23 -65 -40 -55 -6 3 -8 2
-3 -2 10 -11 -23 -46 -36 -38 -5 3 -7 1 -4 -4 4 -6 0 -16 -7 -22 -12 -10 -13
-8 -9 8 6 22 -12 30 -20 9 -4 -10 -7 -10 -18 0 -8 7 -9 12 -4 11 13 -3 45 11
45 20 0 3 -11 7 -25 7 -15 1 -22 -2 -18 -9 3 -6 1 -7 -5 -3 -7 4 -12 2 -12 -3
0 -6 -5 -11 -12 -11 -6 0 -1 11 11 24 13 14 28 23 35 22 6 -2 7 -1 3 2 -5 2 0
13 9 23 9 11 15 21 12 24 -14 14 -220 -230 -318 -375 -58 -86 -153 -278 -146
-297 3 -8 2 -12 -3 -9 -21 13 -127 -312 -119 -366 4 -28 29 -43 59 -34 13 3
64 42 114 86 49 44 98 83 109 86 11 4 26 13 34 20 11 12 11 14 -2 14 -9 0 -16
-4 -16 -9 0 -5 -7 -11 -15 -15 -9 -3 -15 0 -15 10 0 8 5 12 10 9 6 -3 10 -1
10 5 0 6 -7 10 -17 8 -24 -4 -26 60 -1 73 10 5 24 7 30 3 7 -4 8 -3 4 4 -8 14
90 66 106 56 7 -5 4 -10 -10 -15 -27 -10 -19 -39 9 -32 22 6 24 0 8 -29 -7
-13 -8 -23 -1 -30 7 -7 10 -4 9 7 -1 10 3 20 9 22 7 2 10 -10 9 -34 -2 -46
-13 -73 -28 -69 -7 1 -9 1 -5 -1 4 -3 1 -18 -7 -34 -17 -32 -30 -39 -20 -10 3
10 -1 24 -10 31 -13 11 -14 10 -9 -4 3 -9 1 -16 -5 -16 -6 0 -11 6 -11 14 0 7
-8 20 -17 27 -14 12 -16 12 -8 0 5 -9 4 -12 -3 -7 -35 21 -202 -352 -267 -594
-55 -208 -69 -547 -25 -594 32 -33 65 -14 117 67 25 39 56 85 69 100 13 16 22
33 18 38 -3 5 0 8 8 7 7 -2 12 3 10 10 -1 6 4 11 10 10 8 -2 12 5 10 17 -2 16
-1 17 7 5 8 -12 13 -12 30 5 12 10 23 16 26 13 3 -3 -1 -47 -10 -99 -8 -52
-19 -182 -25 -289 -13 -268 -39 -464 -81 -602 -26 -88 -18 -101 9 -16 l20 63
-4 -50 c-2 -27 -1 -42 2 -32 9 27 27 20 21 -9 -3 -18 -1 -24 8 -20 8 3 16 -6
19 -20 4 -14 11 -22 16 -19 6 3 10 -1 10 -9 0 -23 -4 -31 -13 -28 -4 1 -6 -4
-5 -10 2 -7 -4 -11 -12 -10 -8 2 -12 0 -8 -4 9 -8 -10 -34 -24 -34 -6 0 -8 6
-5 14 4 10 0 14 -13 11 -24 -5 -37 14 -19 26 10 6 8 9 -9 9 -19 0 -21 4 -16
25 12 47 -5 25 -21 -27 -15 -52 -15 -53 6 -70 12 -10 31 -18 43 -18 32 0 180
147 196 194 41 124 37 -80 -5 -288 -28 -140 -77 -281 -167 -485 -67 -151 -76
-184 -58 -206 14 -17 92 -20 125 -4 16 7 14 9 -12 6 -18 -2 -33 0 -33 3 0 7
56 19 116 25 42 4 96 33 88 47 -5 7 -2 8 6 3 8 -5 17 -2 24 7 6 8 21 20 34 27
21 11 22 10 22 -31 0 -24 -5 -101 -10 -172 -9 -122 -11 -132 -45 -188 -38 -64
-41 -73 -23 -62 7 4 8 3 4 -5 -4 -6 -11 -9 -15 -7 -11 7 -84 -123 -125 -221
-81 -191 -142 -433 -134 -530 2 -24 0 -43 -4 -43 -5 0 -8 -31 -8 -68 0 -59 3
-72 23 -90 13 -12 28 -22 33 -22 18 0 157 148 150 159 -11 17 -29 13 -22 -4 3
-8 1 -15 -4 -15 -11 0 -14 33 -3 43 3 4 12 2 20 -4 9 -8 13 -8 13 -1 0 6 -6
15 -14 19 -7 4 -17 19 -20 33 l-7 25 20 -25 c20 -24 20 -24 14 -2 -3 12 -9 22
-14 22 -5 0 -5 8 -2 18 4 9 -6 2 -22 -16 -37 -44 -47 -27 -29 51 8 33 12 62
10 64 -3 3 -8 -11 -11 -31 -4 -20 -12 -36 -17 -36 -5 0 -6 9 -3 20 4 12 2 20
-5 20 -6 0 -9 20 -8 55 3 56 6 63 24 45 7 -7 11 -6 12 5 1 8 3 22 4 30 2 17
14 20 23 6 3 -5 1 -12 -5 -16 -6 -4 -8 -10 -5 -14 2 -5 0 -22 -5 -40 -5 -19
-5 -31 1 -31 5 0 9 8 9 19 0 42 87 285 145 406 108 223 217 377 404 569 69 71
120 125 112 121 -10 -5 -12 -4 -7 4 4 6 11 9 16 6 5 -3 40 20 79 52 137 116
295 215 526 331 209 105 480 192 721 231 191 32 209 49 128 120 -44 39 -145
86 -168 78 -6 -2 15 -11 46 -21 56 -16 131 -65 152 -98 16 -26 -3 -39 -81 -54
-80 -16 -135 -18 -114 -5 8 5 10 14 6 22 -5 8 1 6 12 -3 11 -10 24 -18 29 -18
4 0 -1 7 -13 15 -12 9 -21 21 -19 28 1 6 1 9 -1 5 -7 -12 -31 -9 -39 4 -5 7
-3 8 6 3 9 -6 10 -1 5 16 -4 17 -3 20 3 10 8 -11 12 -10 20 5 8 15 13 16 25 6
12 -10 17 -10 23 -1 4 8 3 9 -5 5 -6 -4 -14 0 -17 9 -5 12 -9 13 -20 4 -8 -6
-25 -9 -39 -7 -14 3 -28 1 -31 -4 -3 -4 -10 -6 -15 -2 -5 3 -8 0 -7 -6 2 -8
-50 -26 -142 -50 -179 -47 -349 -110 -548 -205 -172 -83 -275 -143 -267 -155
3 -5 0 -12 -6 -16 -8 -4 -9 -3 -5 4 14 22 -11 12 -70 -29 -132 -93 -176 -131
-162 -141 9 -7 7 -7 -9 -3 -17 5 -44 -16 -142 -111 -67 -64 -120 -119 -117
-121 2 -2 30 23 62 57 32 33 63 59 70 56 8 -3 11 1 7 10 -3 7 -1 14 5 14 6 0
13 -6 15 -12 4 -10 6 -9 6 1 1 9 8 6 21 -9 11 -13 20 -20 20 -15 0 4 7 2 15
-5 13 -10 5 -22 -53 -75 -65 -61 -67 -62 -79 -41 -11 20 -12 20 -19 -9 -5 -17
-7 -37 -6 -45 1 -8 -1 -10 -4 -4 -3 7 -14 10 -25 7 -14 -4 -22 0 -25 14 -3 11
-13 19 -24 18 -26 -2 -52 -26 -46 -42 3 -8 1 -11 -4 -8 -6 3 -13 -1 -16 -10
-4 -8 -14 -20 -23 -25 -16 -8 -17 -4 -9 52 4 34 12 78 17 97 6 20 13 77 17
127 6 85 5 93 -15 113 -11 11 -28 21 -37 21 -21 0 -165 -140 -157 -153 3 -6 1
-7 -5 -3 -7 4 -37 -12 -67 -35 -31 -23 -58 -39 -62 -35 -3 3 17 60 46 126 115
267 158 466 168 781 l6 197 -26 17 c-28 18 -64 16 -59 -4 1 -7 -2 -10 -7 -6
-6 3 -28 -30 -50 -73 -39 -78 -71 -119 -71 -91 0 8 7 57 15 109 18 115 18 169
0 85 -7 -36 -13 -49 -14 -32 0 15 -6 26 -12 25 -10 -3 -18 16 -21 50 -1 6 -5
12 -10 12 -5 0 -6 10 -3 21 5 16 4 20 -6 15 -9 -5 -9 -3 1 6 8 7 16 33 18 58
1 24 7 49 12 54 6 6 10 15 10 20 0 6 -5 4 -11 -4 -8 -12 -10 -12 -7 -1 2 8 12
15 22 17 13 2 17 -2 13 -17 -7 -26 2 -24 13 4 6 16 9 -5 11 -73 l2 -95 8 100
c4 55 13 172 19 260 6 88 13 180 15 205 5 44 4 44 -5 10 -6 -19 -11 -52 -11
-73 0 -20 -4 -35 -8 -33 -5 3 -7 -7 -5 -22 2 -15 1 -19 -2 -9 -3 9 -10 14 -16
11 -11 -7 -1 37 11 46 3 3 7 11 9 18 3 15 -24 16 -34 0 -4 -7 -3 -8 4 -4 17
10 15 -3 -3 -21 -21 -21 -30 -10 -15 17 9 17 9 24 0 30 -7 4 -9 17 -4 35 5 20
4 26 -5 21 -6 -4 -11 -2 -11 3 0 6 3 11 8 11 6 0 7 30 3 73 -1 4 -9 3 -19 -2
-13 -7 -21 -5 -29 7 -12 20 0 62 19 63 7 0 41 3 75 5 58 4 62 3 66 -18 2 -13
5 -6 5 17 1 22 -2 36 -6 30 -11 -16 -32 -16 -32 -1 0 8 6 17 13 19 6 3 -5 4
-25 3 -46 -3 -50 10 -6 19 24 6 35 3 45 -11 7 -10 13 -13 13 -7 0 36 -74 40
-102 6 -7 -9 -40 -28 -73 -43 -33 -16 -87 -51 -119 -79 -33 -28 -61 -49 -63
-47 -2 1 3 20 11 42 7 21 16 75 19 119 3 49 3 68 -2 50 -5 -16 -9 -25 -10 -20
-2 12 -21 -16 -21 -30 0 -5 5 -3 10 5 8 13 10 12 10 -3 0 -11 -5 -17 -12 -14
-8 2 -13 21 -12 49 0 34 -3 45 -13 41 -10 -4 -11 -9 -2 -19 9 -12 9 -13 -4 -8
-9 3 -16 13 -16 22 -2 93 1 138 9 140 6 2 8 8 5 12 -3 5 4 7 15 5 13 -2 20 1
18 8 -2 7 2 12 7 12 6 0 9 -6 9 -12 -1 -7 2 -10 7 -7 5 3 9 1 9 -4 0 -6 9 -8
20 -5 11 3 20 13 19 22 0 10 -2 11 -6 4 -6 -15 -33 -17 -33 -3 0 6 4 10 9 10
6 0 8 9 6 20 -2 11 0 18 5 15 16 -10 21 15 6 31 -17 17 -21 28 -7 20 5 -3 11
1 15 9 3 8 12 15 20 15 10 0 13 -6 9 -16 -4 -11 -8 -12 -13 -4 -5 8 -9 7 -13
-5 -4 -9 -3 -13 3 -10 6 3 10 -4 11 -17 0 -14 9 1 21 37 30 86 179 374 234
453 26 37 47 72 47 79 0 7 4 10 9 7 4 -3 21 16 38 42 27 42 28 50 16 68 -24
38 -57 31 -208 -46 -78 -40 -144 -79 -144 -86 -1 -6 -3 -15 -4 -19 -1 -5 -2
-12 -1 -16 1 -4 -8 -3 -19 3 -26 14 -26 18 11 105 17 41 27 80 23 86 -4 8 -3
9 4 5 7 -4 23 18 42 56 17 35 61 107 96 161 37 54 62 102 58 109 -4 6 -3 8 3
5 6 -4 19 3 29 14 16 17 16 22 4 29 -20 13 -33 12 -25 0 3 -5 1 -10 -5 -10 -7
0 -9 8 -5 20 4 13 2 20 -7 20 -8 0 -14 10 -15 22 -2 25 15 51 28 42 5 -3 6 1
3 9 -3 8 2 19 10 26 13 11 15 8 11 -20 -4 -33 -25 -66 -25 -39 0 10 -3 11 -11
3 -19 -19 -2 -32 25 -20 13 7 22 16 19 21 -4 5 -1 6 5 2 6 -4 9 -13 5 -21 -3
-8 0 -15 6 -15 6 0 11 5 11 10 0 6 5 10 12 10 8 0 6 -6 -4 -17 -14 -13 -20
-14 -32 -3 -11 8 -16 9 -16 1 0 -6 0 -13 0 -16 0 -3 3 -5 6 -4 4 0 10 -4 14
-11 7 -11 97 98 92 113 -1 4 1 6 6 5 12 -5 142 138 134 147 -4 5 -2 5 4 2 13
-8 94 75 94 96 0 7 -5 18 -12 25 -13 13 -67 17 -69 5z"/>
<path d="M14433 13142 c16 -20 24 -39 20 -49 -6 -15 -7 -14 -14 3 -4 10 -8 13
-8 7 -1 -7 -7 -13 -15 -13 -8 0 -16 -8 -18 -17 -4 -19 -2 -21 -68 57 -11 14 3
-13 31 -60 59 -95 173 -329 212 -435 34 -91 72 -236 92 -352 27 -161 42 -437
31 -568 -5 -56 -5 -55 -18 -55 -7 0 -30 38 -52 85 -21 46 -45 92 -53 102 -7
10 0 -10 16 -43 17 -34 27 -64 24 -68 -4 -3 -1 -6 5 -6 7 0 12 -7 12 -16 0 -9
-5 -12 -12 -8 -7 4 -8 3 -4 -5 4 -6 12 -8 18 -5 7 5 9 1 5 -9 -3 -10 -2 -17 3
-17 6 0 10 -13 10 -30 0 -30 15 -41 22 -18 3 7 5 -5 6 -26 1 -22 7 -44 14 -49
9 -6 8 -7 -5 -3 -15 5 -17 2 -12 -14 8 -24 -1 -26 -23 -3 -16 16 -17 15 -20
-10 -4 -32 -17 -36 -19 -6 -1 11 -12 51 -25 87 -12 37 -23 72 -23 77 0 6 -6
17 -12 25 -7 8 -19 24 -28 35 -8 11 1 -14 20 -56 23 -48 45 -120 59 -193 13
-64 26 -119 29 -122 3 -3 20 -7 38 -7 27 -2 36 3 46 24 25 52 72 257 81 359
10 114 6 367 -8 496 -20 184 -115 494 -207 679 -46 91 -121 210 -149 235 l-28
25 27 -33z m227 -492 c26 0 29 -4 39 -47 8 -41 7 -54 -10 -86 -22 -43 -25 -64
-4 -27 8 14 14 21 14 15 0 -15 -28 -62 -29 -47 0 6 -5 12 -11 12 -5 0 -7 -4
-4 -10 3 -5 2 -10 -3 -10 -4 0 -21 41 -36 92 -22 73 -25 93 -14 99 7 5 9 9 3
9 -5 0 -3 5 5 10 10 6 16 6 18 0 2 -6 16 -10 32 -10z"/>
<path d="M10673 12819 c-6 -6 -9 -18 -6 -26 5 -12 1 -14 -16 -8 -18 5 -22 3
-19 -11 2 -10 -2 -19 -9 -19 -7 0 -18 -7 -25 -15 -11 -12 -11 -12 3 -2 14 10
18 10 23 -3 7 -18 -2 -45 -16 -45 -13 0 -38 -26 -38 -39 0 -6 -4 -11 -10 -11
-13 0 -13 6 5 41 9 16 20 27 24 24 5 -2 15 3 22 13 13 15 12 16 -3 3 -10 -7
-18 -10 -18 -6 0 4 -7 2 -15 -5 -8 -7 -15 -9 -15 -4 0 4 -11 -3 -24 -15 -28
-27 -94 -117 -78 -107 8 5 10 2 6 -8 -3 -9 -10 -13 -15 -10 -9 5 -13 -9 -10
-33 1 -6 -3 -14 -9 -18 -6 -4 -5 -11 4 -21 20 -20 24 -18 18 12 -4 20 -1 25
13 22 10 -2 20 3 22 10 3 8 -2 10 -14 6 -17 -5 -17 -5 0 9 9 8 17 19 17 26 0
6 5 11 10 11 6 0 10 -6 9 -12 -1 -7 -1 -22 0 -33 l2 -20 16 20 c14 18 15 18 9
2 -3 -10 -6 -21 -6 -23 0 -2 -10 -4 -22 -4 -18 0 -20 -2 -9 -9 12 -8 10 -15
-8 -46 -12 -21 -20 -39 -18 -42 2 -2 28 37 57 87 75 130 87 133 60 20 -34
-142 -43 -258 -41 -519 l1 -83 38 7 c52 10 69 20 48 28 -10 4 -15 3 -11 -3 3
-6 1 -10 -4 -10 -6 0 -11 7 -11 15 0 8 5 15 11 15 5 0 7 5 4 10 -4 6 -10 8
-14 6 -4 -3 -8 1 -8 9 0 11 5 11 19 4 19 -10 19 -9 3 14 -13 20 -13 26 -3 30
8 3 5 6 -7 6 -17 1 -17 3 -5 11 13 9 13 10 0 11 -8 1 -17 1 -20 1 -3 0 -5 40
-5 90 1 66 5 92 16 99 9 6 10 12 3 17 -6 4 -4 13 8 25 18 17 18 16 13 -14 -4
-21 -2 -28 6 -24 6 4 9 22 7 40 -2 19 0 31 5 28 5 -3 7 -53 4 -112 l-6 -106
14 115 c13 121 51 323 87 474 21 86 21 89 3 102 -23 17 -57 18 -72 3z"/>
<path d="M12279 12810 c-129 -20 -234 -69 -324 -152 -65 -59 -110 -126 -177
-260 -61 -122 -70 -166 -39 -197 38 -38 72 -25 102 37 l26 54 6 -39 c13 -77
72 -176 151 -251 127 -121 242 -171 412 -179 119 -7 178 5 284 54 58 28 93 54
156 117 44 45 93 102 107 127 33 56 67 153 67 191 0 15 4 28 9 28 8 0 42 -25
116 -84 31 -25 39 -27 61 -18 32 15 47 54 34 88 -13 34 -166 186 -255 253
-105 79 -309 177 -431 206 -119 28 -227 37 -305 25z m364 -254 c52 -19 75 -42
83 -84 8 -44 -14 -89 -59 -118 -53 -35 -70 -36 -108 -11 -51 34 -79 82 -72
120 9 49 20 65 61 86 44 24 46 24 95 7z"/>
<path d="M7945 12774 c-11 -3 -51 -12 -90 -21 -38 -9 -106 -32 -150 -51 -216
-94 -515 -348 -515 -438 0 -26 30 -54 57 -54 20 0 103 59 132 93 20 25 31 21
31 -12 0 -140 157 -354 321 -437 69 -34 205 -64 297 -64 202 0 417 139 510
330 23 47 44 94 47 105 6 17 10 13 27 -23 12 -24 31 -50 44 -59 22 -14 26 -14
49 1 38 25 41 71 10 147 -119 283 -228 402 -424 466 -45 15 -303 27 -346 17z
m325 -252 c62 -63 45 -153 -37 -193 -42 -20 -42 -20 -85 -1 -71 31 -83 52 -72
119 8 49 14 61 43 80 50 34 114 32 151 -5z"/>
<path d="M9413 12703 c9 -2 17 -12 18 -21 0 -14 2 -14 8 2 7 18 8 18 26 0 10
-11 20 -18 22 -16 2 1 9 2 16 2 8 0 7 -4 -3 -11 -12 -8 -9 -9 11 -5 15 3 34 0
45 -9 18 -13 18 -14 -6 -9 l-25 5 23 -13 c19 -9 25 -9 34 3 8 12 9 11 5 -2 -3
-9 -1 -21 4 -26 6 -6 4 -10 -6 -10 -8 0 -15 4 -15 9 0 4 -10 8 -22 8 -21 -1
-21 -2 -5 -11 9 -5 17 -15 17 -22 0 -9 -3 -8 -9 1 -6 10 -10 10 -21 -2 -7 -9
-16 -13 -21 -10 -5 3 -9 -2 -9 -10 0 -18 -27 -46 -43 -45 -8 0 -8 2 1 6 17 7
36 43 22 43 -5 0 -10 -7 -10 -15 0 -8 -4 -15 -10 -15 -5 0 -10 6 -10 13 0 8
-4 7 -10 -3 -8 -13 -12 -12 -25 7 -8 12 -21 28 -28 35 -7 7 -22 26 -35 42 -12
16 -22 24 -22 19 0 -5 21 -34 47 -64 89 -104 183 -271 233 -412 16 -44 18 -46
22 -23 3 14 1 26 -3 26 -5 0 -9 8 -9 18 0 15 2 15 11 2 8 -11 9 -8 4 13 -4 19
-2 26 5 22 5 -3 10 -1 10 5 0 6 4 9 9 6 5 -4 12 0 14 6 4 10 8 9 17 -2 17 -23
4 21 -32 103 -32 75 -61 127 -95 173 -43 58 -26 54 92 -19 84 -53 148 -101
230 -176 46 -42 45 -41 -9 15 -32 34 -54 64 -50 66 5 3 3 3 -4 1 -8 -1 -12 2
-10 8 2 6 8 10 13 9 5 -1 12 7 16 17 7 16 8 16 8 -3 1 -35 51 -69 65 -45 4 5
-3 7 -14 4 -13 -3 -22 1 -26 11 -9 22 5 34 16 16 9 -13 10 -13 10 0 0 15 114
-92 132 -125 15 -27 19 -65 6 -65 -6 0 -8 7 -5 14 4 10 1 13 -8 10 -7 -3 -15
-15 -19 -26 -4 -18 -7 -19 -21 -8 -9 7 -14 19 -11 26 3 8 0 11 -10 7 -7 -3
-14 1 -14 8 0 7 -3 10 -6 6 -3 -3 12 -29 34 -59 22 -29 45 -63 51 -76 7 -12
17 -20 23 -16 6 4 8 3 5 -3 -7 -11 62 -148 70 -140 2 3 -6 25 -18 48 -17 34
-18 41 -5 30 14 -12 16 -12 10 3 -3 9 -1 16 5 16 6 0 11 -11 11 -24 0 -21 4
-24 27 -20 26 5 26 4 10 -14 -18 -20 -23 -37 -8 -27 5 3 11 -7 13 -22 2 -14 9
-28 16 -31 8 -2 10 2 5 14 -4 12 -3 15 6 10 6 -4 11 -15 10 -24 -3 -37 2 -52
19 -52 25 0 49 -18 37 -27 -5 -5 -10 -17 -10 -28 0 -11 -7 -20 -15 -20 -8 0
-18 -4 -22 -10 -4 -5 -14 6 -22 25 -17 39 -22 27 -6 -14 13 -34 53 -35 75 -3
8 13 26 76 40 139 13 63 37 153 53 199 17 46 33 93 37 104 6 16 5 17 -4 5 -6
-8 -23 -49 -37 -90 -28 -78 -53 -119 -39 -65 4 17 7 39 7 50 -1 10 3 24 7 30
5 6 2 16 -7 25 -14 13 -15 12 -9 -3 4 -11 3 -16 -3 -12 -15 9 -12 45 3 41 6
-1 9 -1 5 1 -5 3 -8 9 -8 14 0 6 3 8 8 6 4 -3 8 6 8 19 3 35 25 85 35 78 5 -3
6 2 3 10 -4 11 0 16 10 16 9 0 16 5 16 10 0 6 5 10 11 10 5 0 7 -4 4 -10 -4
-6 1 -7 11 -3 15 6 15 7 0 15 -11 6 -22 5 -32 -2 -8 -7 -14 -8 -14 -2 0 14 25
33 33 25 4 -3 7 3 7 15 0 12 5 22 11 22 6 0 9 -6 6 -13 -3 -8 1 -14 8 -14 7 0
13 11 13 24 0 19 -4 22 -22 17 -18 -6 -19 -5 -7 10 7 9 9 16 3 16 -5 0 -27
-33 -48 -74 -26 -50 -41 -71 -47 -63 -6 8 -6 5 -3 -7 4 -11 -3 -44 -15 -75
-22 -55 -47 -97 -34 -56 6 16 5 17 -4 5 -6 -8 -18 -49 -27 -90 -25 -111 -26
-112 -69 -34 -58 104 -95 155 -107 148 -7 -4 -8 -2 -4 5 14 21 -169 218 -200
215 -7 -1 -12 2 -9 6 20 32 -366 243 -438 239 -17 -1 -18 -2 -4 -6z"/>
<path d="M11052 12434 c-17 -20 -35 -33 -40 -30 -5 3 -29 -18 -53 -47 -24 -28
-70 -80 -103 -114 -32 -35 -56 -63 -51 -63 4 0 2 -7 -5 -15 -15 -18 -35 -20
-24 -3 4 7 3 8 -4 4 -6 -4 -9 -13 -5 -21 6 -17 23 -20 23 -5 0 6 5 10 10 10 6
0 10 -11 10 -25 0 -14 5 -25 11 -25 6 0 8 7 4 18 -5 13 -4 15 6 5 10 -10 7
-19 -17 -45 l-29 -31 37 27 c21 16 35 33 31 39 -3 6 -1 7 5 3 25 -15 207 181
256 276 15 29 21 44 12 34 -8 -10 -17 -24 -19 -30 -2 -7 -10 -5 -20 5 -12 12
-13 19 -4 28 8 8 8 11 -2 11 -11 0 -11 3 -1 15 7 8 10 15 7 15 -2 0 -18 -16
-35 -36z"/>
<path d="M11271 12454 c0 -11 -4 -24 -8 -28 -4 -4 -8 -19 -9 -34 -4 -65 -3
-63 -30 -56 -19 5 -25 3 -20 -4 4 -7 2 -21 -4 -32 -8 -14 -8 -20 0 -20 6 0 4
-7 -5 -16 -9 -9 -19 -13 -23 -9 -4 4 -2 10 4 12 9 3 9 10 0 28 -6 14 -14 25
-18 25 -3 0 -4 10 -2 23 2 12 -17 -36 -42 -108 -25 -71 -47 -140 -47 -152 -1
-11 -5 -19 -8 -18 -3 2 -15 -16 -27 -40 -26 -55 -20 -60 8 -7 12 21 18 27 14
13 -4 -16 -3 -21 5 -17 6 4 11 1 11 -8 0 -8 -5 -18 -12 -22 -6 -4 -8 -3 -4 4
3 6 2 13 -3 16 -5 3 -12 -1 -15 -10 -9 -23 -8 -24 14 -24 12 0 20 -7 21 -17 0
-11 3 -13 6 -5 2 6 9 12 14 12 6 0 6 -7 0 -19 -6 -10 -7 -21 -3 -25 3 -4 1
-11 -7 -15 -10 -6 -9 -10 4 -14 9 -4 13 -3 10 3 -3 6 1 10 10 10 10 0 13 -5 9
-12 -4 -7 -3 -8 5 -4 6 4 9 10 7 14 -2 4 2 12 9 19 10 10 14 9 19 -2 3 -8 2
-15 -2 -15 -4 0 -8 -9 -8 -19 0 -15 3 -17 13 -9 7 6 13 17 13 25 0 8 4 12 9 9
4 -3 6 -16 4 -29 -6 -28 -65 -61 -81 -45 -6 6 -12 6 -17 -3 -5 -8 -4 -10 3 -5
7 4 12 3 12 -3 0 -5 -21 -25 -47 -42 -27 -18 -68 -49 -93 -69 -53 -44 -82 -60
-107 -60 -15 0 -16 2 -3 11 13 9 12 10 -2 5 -23 -7 -24 30 -2 64 l16 25 -21
-24 c-38 -43 -18 -100 31 -87 13 3 68 40 123 81 104 78 218 140 336 181 85 30
229 64 269 64 28 0 26 -4 -54 -82 -89 -89 -132 -156 -166 -257 -25 -76 -20
-121 14 -121 12 0 60 16 106 35 176 71 255 87 467 92 213 6 284 -1 472 -47
174 -43 306 -100 230 -100 -49 0 -229 -44 -296 -72 -84 -34 -167 -92 -183
-127 -13 -29 -3 -64 16 -57 8 3 12 2 9 -4 -6 -9 17 -14 112 -25 70 -8 348 -77
453 -113 275 -95 552 -242 723 -384 33 -26 64 -45 70 -41 7 3 9 3 5 -2 -4 -4
30 -48 75 -99 45 -50 104 -120 131 -156 61 -81 76 -96 47 -47 -13 20 -18 37
-13 37 6 0 12 -4 14 -9 2 -5 12 -3 22 5 12 8 15 14 7 14 -10 0 -11 3 -2 14 20
23 21 59 5 86 -26 40 -66 80 -75 74 -5 -3 -6 1 -4 8 7 19 -100 123 -116 113
-7 -5 -10 -4 -6 2 12 19 -102 112 -270 219 -240 154 -492 262 -807 345 -82 22
-152 42 -155 44 -10 10 11 18 106 41 77 19 128 24 238 25 l140 1 -70 13 c-38
7 -62 13 -52 14 33 2 10 16 -25 15 -55 -2 -59 -3 -53 -16 4 -7 -3 -2 -14 11
-16 17 -27 22 -45 17 -14 -3 -28 -1 -32 6 -4 6 -3 8 4 4 6 -3 17 0 25 8 8 8
17 12 21 9 3 -4 6 -1 6 5 0 23 111 32 136 11 9 -8 12 -4 10 15 -2 15 0 26 3
27 3 0 17 2 31 5 31 5 147 -66 160 -98 5 -15 9 -17 9 -7 1 23 -35 53 -135 112
-133 79 -263 132 -420 171 -193 48 -303 60 -511 52 -145 -6 -192 -11 -293 -37
-67 -17 -126 -29 -131 -27 -19 6 89 132 158 185 26 20 31 28 21 36 -9 6 -8 7
5 3 10 -3 39 8 71 29 77 49 81 72 15 105 -31 16 -58 20 -145 20 -170 0 -433
-68 -524 -135 -18 -14 -36 -23 -38 -20 -3 3 21 56 52 117 44 88 65 145 92 253
19 77 33 151 31 165 -3 20 -4 21 -6 4z m727 -746 c-2 -7 4 -12 12 -10 33 8
120 6 120 -2 0 -4 8 -5 17 -2 10 4 14 4 11 0 -4 -4 -3 -15 3 -25 9 -18 4 -19
-106 -19 -75 0 -114 4 -110 10 3 6 1 10 -4 10 -6 0 -11 -4 -11 -10 0 -6 -27
-10 -62 -10 -40 0 -58 4 -49 9 7 5 11 14 7 20 -5 7 -1 9 8 5 9 -3 16 -1 16 5
0 7 11 9 30 6 17 -3 30 -2 30 3 0 4 13 7 29 6 15 -1 35 2 42 7 18 11 19 11 17
-3z m654 -503 c-2 -4 2 -12 10 -16 11 -7 10 -11 -2 -20 -13 -9 -13 -10 0 -6 8
2 14 13 13 25 -4 33 49 33 146 1 99 -34 108 -39 49 -32 -41 6 -42 5 -28 -12
14 -18 14 -18 -10 -2 -16 10 -30 13 -39 8 -11 -7 -10 -11 5 -20 11 -6 13 -11
6 -11 -7 0 -11 -4 -7 -10 3 -5 -16 -3 -42 6 -26 8 -67 19 -90 25 -24 6 -43 16
-43 21 0 5 4 7 8 4 5 -3 8 5 7 17 -1 16 -8 21 -21 19 -15 -2 -16 -1 -5 7 16
10 48 8 43 -4z m783 -317 c66 -42 171 -122 205 -156 11 -11 9 -10 -11 2 -14 9
-29 13 -33 9 -4 -5 -7 -3 -6 2 5 21 -1 29 -10 15 -8 -13 -10 -13 -10 1 0 25
-26 42 -46 31 -12 -7 -13 -11 -5 -17 9 -5 9 -10 0 -21 -10 -12 -9 -17 0 -27
10 -9 15 -8 27 7 15 22 19 10 4 -14 -5 -9 -5 -19 2 -27 17 -21 3 -15 -28 12
-16 14 -29 32 -29 42 0 9 -7 18 -15 20 -13 4 -13 3 0 -6 8 -5 12 -12 9 -15
-10 -10 -233 145 -236 164 -2 13 3 18 17 17 22 -1 26 -13 8 -20 -8 -3 -6 -6 4
-6 9 -1 21 6 26 16 9 14 10 14 16 -5 7 -22 26 -31 26 -12 0 6 12 3 27 -7 21
-14 25 -14 21 -3 -3 8 -11 14 -17 13 -6 -2 -11 1 -11 5 0 14 -60 43 -73 36 -6
-4 -9 -3 -4 1 4 5 -1 17 -10 28 -20 21 30 -6 152 -85z"/>
<path d="M8910 12113 c-199 -20 -300 -60 -300 -119 0 -29 50 -58 83 -49 14 4
18 3 9 -3 -9 -6 0 -12 30 -21 78 -23 162 -75 235 -146 40 -39 73 -76 73 -84 0
-15 -33 -13 -185 8 -94 14 -320 14 -447 0 -117 -12 -313 -60 -468 -114 -119
-42 -283 -123 -274 -136 3 -5 -1 -6 -9 -3 -7 2 -54 -26 -103 -63 -75 -58 -89
-73 -92 -100 -5 -46 20 -56 105 -43 133 19 327 17 423 -5 l25 -6 -25 11 c-36
16 -121 29 -206 31 -41 1 -74 6 -74 10 0 5 12 8 28 8 47 -3 60 1 66 17 5 14 4
15 -9 4 -13 -11 -14 -10 -9 4 4 9 3 16 -2 15 -30 -5 -124 3 -124 10 0 5 12 8
28 7 15 -2 33 1 41 8 11 8 13 8 7 -1 -9 -17 4 -16 26 1 12 9 33 11 70 5 119
-16 155 -19 118 -10 -19 5 -68 14 -107 21 -40 6 -73 15 -73 19 0 10 179 84
292 120 184 58 349 83 563 85 191 1 302 -11 459 -51 119 -29 141 28 68 177
-45 91 -131 182 -222 233 -49 27 -60 38 -47 43 9 3 83 4 165 2 134 -4 156 -7
242 -37 52 -18 124 -48 160 -67 77 -43 69 -29 -10 16 -41 24 -48 30 -27 27 15
-2 27 0 27 4 0 5 -7 9 -15 9 -21 0 -19 13 5 28 12 7 20 8 20 2 0 -5 4 -10 10
-10 5 0 7 7 4 15 -4 8 -13 15 -21 15 -8 0 -11 4 -8 10 4 6 17 4 36 -5 16 -9
29 -13 29 -10 0 9 -126 64 -194 85 -115 35 -261 47 -396 33z m171 -413 c0 10
2 11 6 3 2 -7 16 -13 29 -13 13 0 24 -4 24 -10 0 -5 7 -10 15 -10 8 0 15 -5
15 -11 0 -5 -4 -8 -9 -4 -13 8 -24 -13 -27 -52 -1 -27 1 -31 12 -23 7 6 10 19
8 28 -5 14 -2 13 10 -2 40 -49 8 -72 -71 -52 -32 8 -94 20 -137 27 -58 9 -74
14 -59 20 33 12 35 26 4 24 -35 -2 -31 20 5 29 13 4 24 10 24 14 0 5 24 5 53
2 38 -4 57 -2 66 7 6 7 9 13 6 13 -3 0 -3 5 1 11 4 8 9 7 15 -2 7 -12 9 -11
10 1z"/>
<path d="M9765 11958 c2 -35 -1 -60 -7 -65 -7 -4 -9 0 -5 10 3 9 1 19 -5 23
-6 4 -8 3 -5 -3 4 -6 0 -13 -8 -17 -8 -3 -19 3 -25 12 -8 14 -11 15 -19 3 -7
-11 -10 -9 -13 10 -3 13 -3 -11 -1 -54 1 -44 -2 -87 -7 -96 -6 -12 -5 -22 2
-29 28 -28 -6 -8 -59 34 -80 65 -98 76 -43 30 25 -22 71 -66 102 -99 63 -66
86 -69 108 -16 13 31 7 195 -11 274 -8 36 -8 35 -4 -17z"/>
<path d="M10015 10604 c-449 -44 -732 -216 -830 -503 -35 -102 -45 -274 -21
-375 19 -82 58 -182 96 -245 15 -25 49 -83 76 -129 52 -89 171 -216 279 -298
122 -92 387 -204 530 -222 l50 -7 0 -209 0 -209 -184 -64 c-441 -151 -737
-182 -991 -101 -82 26 -219 106 -233 135 -13 29 -96 83 -127 83 -43 0 -397
-207 -392 -229 1 -7 -2 -10 -8 -6 -13 8 -126 -83 -122 -97 1 -5 -2 -7 -7 -4
-13 9 -94 -59 -178 -147 -70 -73 -77 -86 -74 -114 1 -7 -2 -21 -8 -31 -6 -11
-6 -24 0 -34 10 -18 35 -15 37 5 2 28 8 42 17 42 6 0 9 -3 8 -7 -2 -5 2 -8 7
-8 6 0 10 9 10 19 0 27 15 34 30 16 12 -14 7 -19 -13 -16 -5 1 -6 -3 -2 -9 4
-6 52 33 113 91 145 138 235 207 412 313 150 90 145 88 195 80 34 -5 45 -11
45 -24 0 -35 44 -72 143 -120 146 -71 231 -91 407 -97 94 -3 179 0 243 10 l98
13 147 -47 c200 -64 282 -80 453 -86 210 -8 372 23 580 113 79 33 82 34 152
23 42 -7 142 -9 246 -6 141 3 191 9 250 26 136 40 261 103 304 152 30 34 102
79 128 79 6 0 57 -29 112 -64 113 -70 147 -89 147 -82 0 3 -27 21 -60 42 -62
38 -74 50 -40 39 11 -3 20 -2 20 3 0 5 7 9 15 9 9 0 15 -9 15 -23 0 -23 32
-43 38 -24 3 8 8 7 18 -1 10 -8 14 -8 14 0 0 11 -12 15 -42 12 -10 -1 -18 2
-18 6 0 5 18 10 41 10 32 1 39 -2 34 -15 -12 -31 34 -42 61 -14 17 16 17 16
12 -5 -3 -13 2 -37 12 -56 11 -19 16 -37 13 -40 -9 -10 8 -27 20 -20 22 14 35
11 32 -6 -2 -9 -4 -19 -4 -24 -1 -11 -53 18 -88 50 -37 34 -73 56 -80 50 -3
-3 6 -11 18 -18 13 -6 52 -34 86 -62 55 -43 66 -47 81 -36 12 9 14 9 6 0 -9
-9 13 -36 92 -115 56 -57 104 -114 107 -127 4 -22 4 -22 6 4 0 15 6 27 12 27
5 0 7 -4 4 -10 -10 -16 5 -12 23 6 10 11 17 13 20 5 2 -6 10 -11 18 -11 8 0
14 -4 14 -9 0 -5 11 -11 24 -13 25 -5 25 -5 10 24 -11 22 -18 27 -28 19 -9 -8
-13 -7 -13 4 0 8 4 15 9 15 5 0 6 5 3 10 -4 6 -11 8 -16 5 -5 -3 -6 1 -3 9 8
20 -191 220 -211 212 -8 -3 -14 0 -12 7 1 7 -4 11 -10 10 -7 -2 -12 1 -10 7 4
15 -93 79 -110 73 -10 -4 -14 -2 -10 4 6 10 -82 83 -99 83 -3 0 -24 13 -47 28
-67 45 -168 98 -220 116 -38 13 -57 14 -86 6 -42 -11 -97 -60 -68 -60 14 0 15
-4 5 -25 -8 -18 -14 -22 -19 -13 -6 9 -22 3 -61 -22 -79 -50 -117 -67 -215
-96 -155 -46 -482 -45 -648 2 -80 23 -272 80 -375 112 l-95 30 -3 206 -2 206
22 4 c289 58 501 166 690 352 76 75 109 121 200 285 88 156 110 227 116 364
14 341 -137 568 -465 699 -168 67 -242 78 -558 81 -154 1 -298 1 -320 -1z"/>
<path d="M4812 10238 c-43 -137 -56 -244 -49 -408 5 -140 23 -215 76 -318 30
-60 95 -72 105 -20 32 161 76 271 140 343 38 43 45 34 21 -30 -18 -50 -19 -79
-3 -69 7 4 8 3 4 -5 -4 -6 -11 -9 -16 -6 -19 12 -43 -221 -43 -420 0 -299 33
-446 133 -599 61 -94 125 -150 218 -195 75 -35 80 -36 197 -36 98 0 129 4 167
20 27 11 48 26 48 33 0 8 -5 10 -12 5 -17 -11 -68 -12 -62 -1 3 5 10 6 15 3 5
-4 9 1 9 9 0 10 9 16 23 17 l22 0 -22 9 c-13 5 -23 14 -23 20 0 6 5 8 10 5 6
-3 10 -2 10 2 0 12 52 8 77 -6 11 -5 23 -8 26 -5 3 3 3 -3 0 -15 -5 -18 -13
-24 -33 -23 -3 0 -11 -6 -18 -14 -7 -8 -11 -14 -9 -14 18 0 133 61 183 96 74
52 207 193 199 212 -2 7 -1 11 4 7 5 -3 24 14 41 37 l32 43 -5 -38 c-4 -22 -2
-35 4 -32 5 4 9 1 9 -5 0 -7 7 -5 16 4 8 9 12 21 8 27 -4 7 -3 9 4 5 5 -3 12
0 15 6 3 7 2 -7 -1 -32 -3 -25 -9 -46 -13 -48 -11 -4 16 -32 30 -32 6 0 11 -7
11 -15 0 -8 6 -15 14 -15 9 0 12 -8 8 -27 -5 -25 -6 -26 -14 -8 -5 12 -6 -8
-2 -49 9 -103 47 -245 104 -391 11 -27 13 -28 19 -11 7 19 8 19 13 -2 4 -12 2
-20 -3 -16 -16 10 -9 -8 32 -85 80 -146 156 -240 205 -255 13 -4 29 0 42 11
18 16 21 33 25 146 2 70 0 130 -4 133 -5 3 -6 -1 -4 -8 4 -10 -2 -14 -19 -14
-20 0 -23 3 -14 13 6 8 7 13 1 13 -6 0 -10 37 -11 86 0 47 -3 88 -8 92 -4 4
-4 -1 -1 -10 4 -10 2 -18 -2 -18 -10 0 -24 -57 -37 -144 -4 -34 -3 -47 4 -42
6 3 13 2 17 -4 3 -5 1 -10 -5 -10 -6 0 -8 -5 -5 -11 9 -14 14 -62 8 -73 -3 -4
-9 -3 -13 4 -12 19 -29 3 -23 -20 4 -14 9 -17 17 -11 16 14 49 7 54 -10 3 -11
2 -12 -6 -1 -7 11 -10 11 -15 -2 -6 -15 14 -22 46 -17 4 0 7 -6 7 -14 0 -8 -4
-15 -10 -15 -5 0 -10 5 -10 10 0 6 -4 10 -8 10 -4 0 -8 -8 -8 -19 0 -12 6 -17
18 -13 12 3 18 -1 18 -12 0 -10 -4 -15 -9 -11 -5 3 -13 0 -17 -6 -4 -8 -3 -9
4 -5 7 4 12 3 12 -2 0 -17 -25 -20 -58 -6 -31 13 -47 32 -17 20 8 -3 15 -1 15
5 0 6 6 7 13 3 6 -4 5 1 -4 12 -9 10 -20 26 -24 34 -7 12 -6 13 6 3 11 -9 14
-7 14 13 0 27 -10 32 -19 9 -3 -8 -11 -13 -18 -11 -7 1 -10 1 -5 -1 4 -3 7 -9
7 -15 0 -6 8 -17 18 -24 15 -12 15 -13 -8 -11 -29 1 -44 18 -27 30 8 6 6 7 -5
3 -10 -3 -20 -1 -23 4 -4 6 -1 10 4 10 6 0 11 7 11 16 0 8 4 13 8 10 5 -3 9 1
9 9 0 8 -4 12 -9 9 -4 -3 -5 2 -2 10 4 9 1 16 -6 16 -7 0 -10 -8 -7 -20 3 -11
1 -20 -5 -20 -5 0 -7 -4 -3 -9 3 -5 1 -12 -5 -16 -5 -3 -10 -1 -10 5 0 6 -9
20 -20 32 -13 15 -19 34 -18 60 1 39 18 66 18 30 0 -11 7 -22 15 -25 8 -4 12
-15 10 -28 -3 -17 -2 -20 7 -11 6 6 7 18 3 29 -5 10 -7 22 -6 26 1 5 -3 6 -9
2 -6 -4 -7 1 -3 11 5 15 7 14 16 -2 14 -27 14 -27 47 -29 16 -1 27 2 23 8 -3
5 -14 7 -24 4 -19 -5 -48 28 -30 35 5 2 -13 41 -40 88 -60 104 -104 223 -132
355 -31 144 -30 451 1 575 35 138 35 139 18 104 -8 -18 -19 -57 -26 -88 -6
-31 -15 -56 -19 -56 -12 0 -10 33 3 49 9 12 8 13 -2 7 -10 -6 -13 -2 -10 15 2
13 9 23 15 22 15 -3 22 65 8 77 -6 5 -10 23 -9 40 2 24 -3 31 -22 36 -33 8
-30 20 7 33 45 16 66 14 78 -6 6 -10 11 -13 11 -8 0 16 -22 35 -39 35 -31 0
-161 -53 -154 -63 3 -6 1 -7 -5 -3 -15 9 -124 -48 -149 -78 -18 -21 -18 -21 2
-5 34 28 115 69 115 59 0 -6 -4 -10 -9 -10 -14 0 -41 -29 -41 -43 0 -8 4 -7 9
2 8 12 12 12 26 -2 9 -10 20 -15 25 -12 5 3 7 -3 6 -12 -2 -10 2 -22 8 -26 7
-6 4 -7 -6 -3 -22 7 -48 -2 -48 -16 0 -6 6 -5 15 2 13 11 15 8 15 -21 0 -19 4
-29 8 -24 4 6 22 11 40 12 29 2 35 -2 44 -28 5 -16 14 -29 19 -29 12 0 11 17
-1 23 -6 3 -5 4 2 3 7 -2 12 -11 12 -20 -1 -9 4 -16 12 -16 8 0 14 -5 14 -10
0 -7 -7 -7 -21 0 -11 7 -23 9 -27 6 -3 -3 -1 -6 5 -6 6 0 14 -7 17 -16 3 -8 2
-13 -3 -10 -11 7 -33 -43 -24 -57 5 -8 2 -8 -8 0 -13 11 -15 9 -14 -10 2 -12
7 -21 13 -20 6 2 9 -4 5 -13 -5 -13 -7 -13 -14 -2 -6 10 -11 10 -21 0 -9 -9
-9 -12 2 -12 7 0 10 -3 7 -7 -4 -3 1 -15 10 -25 16 -18 16 -18 0 -12 -9 3 -17
10 -17 16 0 5 -4 6 -10 3 -5 -3 -7 0 -4 8 3 8 1 18 -5 21 -6 4 -7 14 -4 24 4
12 1 11 -14 -5 -11 -13 -23 -20 -27 -16 -10 10 -7 25 4 18 17 -10 11 12 -7 26
-11 10 -14 10 -9 2 4 -7 2 -13 -3 -13 -6 0 -11 5 -11 10 0 6 -5 10 -11 10 -5
0 -7 -4 -4 -10 3 -5 2 -10 -4 -10 -5 0 -9 9 -8 20 1 15 6 19 22 15 18 -5 18
-5 3 5 -10 6 -18 16 -18 21 0 6 4 7 10 4 6 -3 7 1 4 9 -9 23 -15 16 -64 -66
-23 -40 -56 -90 -72 -111 -24 -30 -28 -40 -18 -52 7 -8 17 -12 22 -9 6 4 8 -1
4 -14 -9 -27 12 -39 29 -16 20 26 19 4 -1 -24 -18 -25 -39 -29 -48 -7 -3 8 -1
15 4 15 6 0 6 9 1 23 -5 12 -14 21 -21 19 -7 -1 -9 3 -4 10 4 7 -15 -8 -42
-33 -190 -179 -368 -258 -522 -231 -34 6 -83 21 -109 33 -27 13 -53 23 -60 22
-7 0 -11 4 -10 11 1 6 -5 10 -13 8 -8 -2 -12 0 -7 4 4 4 -6 21 -22 38 -48 51
-98 155 -126 261 -21 79 -27 133 -32 255 -5 152 0 217 31 420 25 157 26 167
12 115 l-12 -50 -8 50 c-4 28 -10 68 -13 90 -3 22 -11 43 -17 47 -8 5 -7 8 3
8 9 0 11 8 7 24 -8 32 13 45 32 20 11 -14 13 -15 9 -3 -3 9 1 26 8 37 8 10 11
23 7 27 -4 4 4 2 16 -5 20 -10 23 -17 18 -48 -3 -25 1 -18 14 23 25 76 25 90
-1 109 -24 16 -37 13 -91 -21 -27 -16 -36 -28 -32 -40 5 -15 4 -15 -4 -4 -9
12 -18 8 -54 -21 -47 -39 -143 -152 -173 -205 -26 -45 -35 -26 -35 74 0 100
15 214 42 311 11 41 18 76 15 78 -2 3 -10 -15 -17 -40 -9 -33 -18 -45 -35 -48
-16 -3 -22 -1 -18 8 2 7 12 10 21 7 9 -4 14 -3 11 1 -11 11 -49 15 -49 5 0 -6
-5 -7 -10 -4 -6 4 -8 11 -4 16 11 19 15 61 4 54 -5 -3 -10 1 -10 10 0 9 3 14
8 12 4 -3 8 10 9 29 1 19 0 34 -1 34 -1 0 -17 -46 -34 -102z"/>
<path d="M14031 10219 c-1 -4 13 -39 29 -77 35 -83 38 -99 10 -57 -20 29 -21
29 -16 5 2 -14 -2 -39 -10 -55 -8 -17 -12 -22 -9 -12 3 11 1 16 -6 11 -6 -3
-8 -15 -6 -26 4 -14 1 -18 -8 -14 -8 3 -17 0 -21 -6 -4 -6 -3 -8 3 -5 6 4 16
1 22 -7 9 -11 8 -15 -5 -20 -12 -5 -31 6 -63 36 -24 24 -11 6 29 -40 78 -87
103 -102 140 -82 20 11 22 18 17 59 -3 26 -15 74 -26 107 -20 61 -79 194 -80
183z"/>
<path d="M14071 9362 c-1 -7 -5 -10 -11 -7 -5 3 -10 2 -10 -4 0 -5 4 -12 10
-16 14 -9 -11 -57 -27 -51 -7 3 -13 0 -13 -7 0 -8 -4 -6 -10 3 -9 13 -10 13
-10 0 0 -13 -1 -13 -10 0 -14 21 -13 13 10 -76 11 -44 20 -91 20 -106 0 -15 4
-29 8 -32 5 -3 6 9 4 26 -3 21 -1 29 7 24 6 -4 11 -19 11 -34 0 -20 3 -23 12
-14 19 19 28 14 28 -13 0 -14 5 -25 11 -25 6 0 9 -7 6 -15 -4 -8 -2 -17 3 -20
6 -4 10 -1 10 5 0 6 5 8 10 5 6 -3 10 -11 10 -16 0 -6 -4 -7 -10 -4 -5 3 -10
0 -10 -7 0 -10 -2 -11 -8 0 -5 7 -16 10 -25 6 -10 -3 -17 -1 -17 6 0 6 5 8 10
5 6 -3 10 1 10 10 0 9 -5 13 -10 10 -7 -4 -9 5 -5 25 4 25 3 29 -7 19 -8 -7
-14 -32 -15 -57 -2 -40 -1 -44 18 -39 15 4 19 2 15 -10 -3 -8 -6 -18 -6 -21 0
-4 -4 0 -10 8 -5 8 -12 11 -16 7 -5 -4 2 -17 14 -29 l22 -22 0 27 c0 15 4 27
10 27 6 0 8 -15 4 -36 -4 -27 -3 -34 7 -29 8 5 10 4 5 -4 -8 -13 -28 -2 -53
29 -10 12 -13 0 -15 -65 -2 -59 -4 -41 -8 65 l-6 145 -2 -151 c-2 -154 -25
-316 -56 -403 -9 -24 -14 -47 -11 -51 3 -5 2 -10 -2 -12 -5 -1 -35 -56 -67
-121 -70 -138 -83 -153 -90 -105 -18 124 -30 179 -57 246 -17 42 -35 82 -40
87 -6 6 -6 -2 1 -19 9 -23 8 -27 -2 -18 -10 8 -13 3 -12 -21 0 -48 -9 -67 -17
-37 -6 20 -7 16 -8 -20 l-2 -45 -14 38 c-7 21 -17 42 -21 45 -4 4 -4 -2 0 -13
31 -84 58 -224 63 -317 4 -82 9 -108 19 -108 8 0 14 -9 14 -20 0 -27 14 -25
28 3 l11 22 0 -22 c1 -30 16 -37 37 -16 16 16 16 16 9 -7 -6 -22 -3 -21 23 10
78 90 229 388 262 515 69 268 67 544 -4 780 -14 44 -25 74 -25 67z"/>
<path d="M13497 8789 c-15 -9 -17 -24 -16 -100 1 -52 5 -89 11 -89 6 0 6 -6
-1 -14 -9 -11 -9 -16 0 -21 8 -6 8 -9 -1 -15 -7 -4 -8 -10 -4 -13 5 -3 15 1
22 9 7 8 8 14 2 14 -5 0 -10 7 -10 16 0 8 4 13 9 9 10 -6 41 21 41 36 0 5 -4
9 -10 9 -5 0 -10 -6 -10 -14 0 -22 -13 -26 -30 -8 -13 14 -12 15 2 10 10 -4
19 -1 22 7 3 10 16 13 36 11 16 -2 30 1 30 5 0 9 -14 12 -26 7 -13 -6 -24 32
-15 51 6 10 7 21 4 25 -3 3 -1 6 6 6 8 0 11 -7 7 -15 -8 -21 3 -45 21 -45 8 0
11 5 8 10 -3 6 3 10 15 10 21 0 21 0 3 31 -20 35 -69 79 -86 79 -7 0 -20 -5
-30 -11z"/>
<path d="M6935 8720 c-3 -5 -3 -15 1 -22 4 -6 3 -8 -3 -5 -15 9 -45 -27 -38
-46 4 -8 2 -18 -4 -22 -7 -3 -8 0 -5 9 13 33 -7 14 -41 -39 -36 -57 -86 -170
-79 -178 3 -2 5 -31 6 -63 0 -40 3 -53 9 -39 7 17 8 16 8 -7 1 -16 -3 -28 -9
-28 -5 0 -10 -4 -10 -10 0 -5 3 -9 8 -9 24 4 41 -3 44 -18 2 -10 16 23 30 72
15 50 34 100 42 110 15 19 15 19 16 -10 4 -142 30 -255 90 -382 64 -135 132
-232 233 -330 80 -79 227 -182 337 -238 76 -39 220 -86 241 -80 12 4 19 21 24
58 3 29 8 68 11 88 4 27 2 36 -9 36 -9 0 -13 -5 -11 -12 3 -6 -5 -11 -16 -12
-20 -2 -21 2 -17 67 2 53 0 71 -11 75 -9 3 -12 0 -9 -9 3 -8 1 -16 -4 -18 -6
-2 -14 -24 -20 -48 -20 -94 -18 -91 -37 -80 -9 6 -48 24 -86 40 -37 17 -105
54 -150 83 -44 29 -89 51 -99 49 -9 -2 -15 -8 -11 -13 3 -5 10 -7 15 -4 5 4 4
-5 -3 -19 -6 -14 -15 -26 -19 -26 -5 0 -6 -7 -2 -16 9 -23 -6 -16 -61 30 -48
41 -59 59 -28 50 13 -5 14 -4 3 4 -10 7 -11 14 -2 28 6 11 11 16 11 12 0 -4
11 -3 24 2 20 7 27 4 42 -16 11 -13 23 -24 28 -24 4 0 -19 30 -53 66 -83 88
-137 158 -174 223 -27 48 -32 52 -43 36 -9 -12 -10 -24 -4 -35 5 -9 7 -25 5
-36 -2 -10 -4 -23 -4 -27 -1 -5 -6 -5 -13 -1 -8 5 -9 2 -4 -11 6 -16 4 -16
-10 -4 -29 24 -73 131 -67 164 4 24 2 27 -7 15 -10 -13 -11 -13 -7 0 2 8 12
14 22 12 11 -2 14 1 9 9 -4 8 -3 10 5 5 6 -4 8 -12 5 -18 -5 -8 -1 -9 12 -4
10 5 24 9 31 9 7 0 10 3 8 7 -2 4 -16 50 -29 103 -32 124 -48 289 -38 390 6
60 5 83 -6 98 -14 21 -38 27 -26 7 6 -10 4 -10 -7 0 -16 15 -36 16 -44 2z"/>
<path d="M6227 8713 c-4 -3 -7 -11 -7 -17 0 -6 5 -4 10 4 8 13 10 12 10 -2 0
-10 -6 -18 -14 -18 -8 0 -20 -17 -27 -37 -7 -21 -34 -89 -61 -151 -47 -111
-58 -143 -38 -112 8 13 14 10 35 -15 13 -16 29 -36 35 -42 8 -9 3 -28 -16 -65
-15 -29 -28 -54 -29 -56 -9 -10 -45 21 -45 38 0 11 -4 20 -10 20 -5 0 -7 6 -4
14 3 8 0 17 -7 22 -7 4 -10 3 -6 -3 4 -6 1 -13 -6 -16 -8 -3 -28 -34 -46 -69
-18 -34 -55 -100 -82 -145 -28 -46 -47 -88 -44 -93 4 -6 1 -9 -7 -8 -8 2 -12
-6 -10 -22 1 -17 -1 -21 -7 -12 -11 17 -76 -62 -65 -79 4 -7 3 -9 -3 -6 -13 8
-169 -149 -167 -168 1 -7 -6 -12 -15 -11 -9 0 -15 -5 -13 -12 1 -8 -2 -11 -6
-8 -5 3 -18 -4 -28 -16 -11 -12 -14 -19 -9 -15 6 3 17 1 25 -5 11 -7 7 -8 -16
-4 -38 6 -67 -20 -62 -56 4 -30 97 -79 147 -77 27 1 30 3 11 6 -58 10 -98 24
-119 42 l-21 19 26 6 c14 4 31 3 37 -2 7 -5 23 -5 37 -1 24 8 24 9 -3 5 -17
-2 -26 1 -24 8 2 6 16 10 31 10 17 -1 25 3 22 11 -6 17 10 40 18 26 4 -6 3
-11 -2 -11 -6 0 -8 -8 -5 -18 3 -13 14 -19 33 -19 26 0 27 2 12 13 -9 8 -12
14 -7 14 6 0 3 5 -5 11 -12 8 -11 9 5 7 12 -2 19 2 17 10 -1 8 1 11 6 8 5 -3
38 27 73 67 78 88 98 113 82 103 -7 -4 -13 -3 -13 2 0 5 8 12 18 14 10 3 29
21 42 39 19 27 20 31 4 18 -10 -9 -26 -14 -34 -12 -12 4 -13 3 -1 -5 8 -6 10
-15 6 -23 -6 -9 -10 -8 -15 7 -9 24 -1 46 14 37 6 -4 5 1 -3 10 -15 18 -26 23
-16 7 3 -5 1 -10 -4 -10 -6 0 -11 9 -11 21 0 16 4 19 21 14 15 -5 19 -4 14 5
-6 9 -3 9 13 1 26 -14 35 -14 27 -1 -3 6 1 7 10 4 12 -5 13 -10 4 -23 -6 -9 0
-3 15 12 57 61 204 330 286 522 41 96 93 256 85 263 -2 2 -6 -6 -10 -17 -4
-12 -11 -18 -17 -15 -7 5 -9 1 -5 -9 4 -10 2 -14 -6 -11 -16 6 -40 61 -32 74
7 11 -18 14 -28 3z"/>
<path d="M13482 8466 c-4 -74 -30 -199 -58 -272 -18 -50 -20 -62 -9 -57 13 4
14 1 5 -21 -9 -24 -6 -28 16 -25 8 1 24 -23 24 -36 0 -5 -5 -3 -10 5 -9 13
-11 13 -20 0 -5 -8 -9 -24 -7 -34 1 -11 -4 -21 -11 -23 -7 -3 -10 1 -6 11 8
21 -5 20 -23 -1 -8 -10 -12 -12 -8 -5 3 7 3 22 0 33 -6 19 -10 17 -35 -22 -16
-23 -26 -47 -23 -52 3 -6 1 -7 -4 -4 -6 4 -22 -10 -36 -31 -15 -20 -49 -59
-76 -86 -28 -27 -48 -53 -45 -58 3 -5 1 -7 -4 -6 -5 2 -37 -17 -70 -41 -42
-30 -59 -48 -55 -60 4 -13 3 -14 -5 -2 -9 12 -20 9 -69 -21 -67 -41 -128 -72
-160 -82 -20 -6 -23 -4 -24 21 0 15 -9 53 -19 83 -14 38 -18 45 -15 22 3 -20
1 -31 -5 -27 -6 3 -7 -1 -4 -9 3 -9 10 -16 15 -16 5 0 9 -5 9 -11 0 -5 -4 -7
-10 -4 -18 11 -11 -34 8 -45 16 -11 16 -11 0 -6 -13 4 -18 0 -18 -14 0 -11 4
-20 9 -20 5 0 12 -7 15 -16 5 -14 4 -15 -9 -4 -9 7 -18 10 -22 7 -3 -4 -13 -1
-22 6 -14 10 -14 10 -3 -5 10 -13 10 -17 0 -22 -7 -3 -3 -3 10 0 12 3 22 1 22
-5 0 -6 -4 -11 -10 -11 -5 0 -10 -4 -10 -10 0 -5 5 -9 12 -7 6 1 13 -7 15 -18
3 -17 2 -17 -6 -5 -10 13 -12 13 -21 0 -9 -13 -11 -13 -19 0 -12 17 -26 7 -16
-11 17 -26 121 -3 228 50 127 62 259 149 251 163 -4 7 -2 8 4 4 13 -8 84 52
76 65 -3 5 1 6 9 3 29 -11 215 221 202 254 -2 7 -1 11 4 8 16 -11 110 216 131
317 15 77 28 207 19 201 -4 -2 -10 -38 -14 -79 -4 -41 -12 -75 -17 -75 -6 0
-8 7 -4 15 3 8 0 15 -6 15 -7 0 -7 4 1 14 9 11 9 16 0 22 -7 4 -9 3 -6 -3 8
-12 -27 -46 -36 -36 -4 3 -7 15 -7 25 0 10 -4 18 -10 18 -5 0 -10 5 -10 11 0
5 6 7 13 3 8 -5 8 -2 -2 9 -9 11 -10 17 -2 17 15 0 14 37 -1 43 -9 3 -14 -11
-16 -47z"/>
<path d="M14546 8274 c-32 -31 -17 -56 96 -163 100 -95 210 -222 262 -303 39
-62 130 -267 122 -275 -3 -3 -30 4 -60 16 -70 29 -192 61 -233 61 -31 0 -73
-28 -73 -49 0 -5 23 -58 51 -117 116 -249 177 -436 210 -648 l12 -80 -49 -43
c-27 -23 -48 -48 -46 -54 1 -6 -2 -8 -8 -4 -10 6 -133 -107 -296 -275 -142
-147 -167 -177 -158 -192 4 -7 4 -10 -1 -6 -11 11 -36 -12 -28 -25 3 -5 2 -7
-4 -4 -14 9 -96 -90 -87 -105 4 -6 3 -8 -3 -5 -5 4 -23 -7 -38 -23 -16 -17
-23 -30 -17 -30 7 0 12 -5 12 -11 0 -6 -7 -9 -15 -6 -8 4 -17 1 -21 -5 -4 -7
-3 -8 4 -4 8 5 11 0 9 -13 -4 -27 -17 -39 -17 -17 0 9 -5 14 -10 11 -6 -4 -7
-11 -4 -17 4 -6 2 -8 -3 -5 -6 4 -16 0 -23 -8 -11 -13 -10 -14 4 -9 9 3 16 1
16 -5 0 -6 -8 -11 -19 -11 -10 0 -25 -8 -32 -17 -12 -14 -12 -16 0 -9 9 6 12
5 9 -5 -3 -8 -12 -13 -22 -11 -16 3 -23 -13 -8 -21 4 -2 2 -2 -5 -1 -11 3 -99
-111 -97 -125 1 -3 -7 -12 -18 -20 -11 -7 -17 -20 -14 -28 3 -8 2 -11 -3 -8
-12 7 -72 -79 -69 -97 2 -7 -3 -12 -11 -10 -9 2 -11 -3 -7 -13 3 -9 2 -13 -4
-10 -12 7 -102 -128 -98 -147 2 -7 -3 -12 -11 -10 -12 3 -12 0 -2 -11 8 -11 9
-16 1 -19 -6 -2 -12 -11 -14 -20 -1 -10 -6 -21 -11 -25 -4 -4 -5 -2 -1 5 4 6
2 12 -3 12 -15 0 -13 -21 4 -44 11 -14 12 -24 4 -39 -7 -12 -7 -17 -1 -13 10
6 22 -15 22 -39 0 -8 -7 -21 -16 -29 -8 -9 -14 -21 -12 -27 2 -6 16 7 31 30
15 23 25 47 21 53 -4 6 -3 8 3 5 6 -4 28 23 51 61 22 37 67 107 101 156 33 49
58 93 54 99 -3 6 -1 7 4 4 11 -7 156 188 156 210 0 6 4 10 8 8 11 -7 32 23 24
35 -4 6 -2 9 3 8 5 -2 21 12 37 30 23 28 26 35 14 43 -12 8 -11 9 2 7 10 -2
36 21 65 57 173 214 414 472 596 637 43 39 75 75 71 81 -3 6 -1 7 5 3 7 -4 64
35 135 92 68 54 173 133 235 176 61 43 109 83 105 89 -3 6 -1 7 6 3 7 -5 50
17 104 52 362 232 840 450 1236 561 75 21 232 62 349 91 203 51 251 70 179 70
-41 0 -139 16 -187 31 -31 9 -56 6 -175 -25 -147 -38 -310 -87 -460 -138 -219
-75 -627 -261 -840 -383 -140 -80 -346 -216 -340 -225 3 -4 -3 -7 -12 -6 -10
0 -18 -4 -18 -11 0 -6 -4 -15 -9 -20 -5 -5 -6 -3 -2 5 4 6 4 12 1 12 -7 0 -14
-5 -135 -100 -41 -33 -79 -60 -83 -60 -10 0 -12 7 -32 120 -24 130 -78 303
-131 423 -26 57 -41 104 -36 109 10 10 66 -8 142 -47 42 -21 55 -24 62 -13 7
10 8 8 6 -6 -2 -11 7 -25 22 -34 l25 -16 -19 21 c-12 14 -17 32 -14 48 3 14 1
28 -5 32 -6 3 -7 1 -3 -5 4 -7 2 -12 -3 -12 -6 0 -11 7 -11 16 0 8 -4 12 -10
9 -5 -3 -10 -1 -10 4 0 6 -4 11 -10 11 -5 0 -10 -9 -10 -20 0 -25 -10 -25 -66
0 -39 18 -44 24 -38 43 8 29 24 46 24 26 0 -8 -5 -20 -12 -27 -8 -8 -8 -12 -1
-12 6 0 14 7 17 16 3 9 11 12 18 8 10 -6 10 -4 0 8 -10 13 -10 17 0 21 22 8
47 -12 43 -33 -2 -12 2 -20 10 -20 8 0 12 6 9 14 -3 8 -1 17 5 21 7 4 11 -4
11 -20 0 -15 4 -24 10 -20 6 3 10 1 10 -5 0 -6 4 -9 9 -5 5 3 16 -1 24 -9 8
-8 17 -12 21 -9 3 4 6 1 6 -5 0 -7 -4 -12 -10 -12 -5 0 -10 -4 -10 -9 0 -5 14
-3 30 5 17 9 30 18 30 20 0 3 -4 2 -10 -1 -5 -3 -10 0 -10 9 0 8 -6 17 -12 20
-7 3 0 2 16 -1 29 -6 29 -6 22 33 -24 127 -104 304 -190 416 -34 44 -78 103
-99 131 -20 29 -46 59 -57 68 -18 16 -14 17 76 24 95 7 175 22 127 24 -24 1
-33 21 -10 21 6 0 -6 11 -28 24 -38 23 -39 25 -18 33 13 5 -30 8 -110 9 -83 1
-157 8 -200 18 -83 20 -82 20 -101 0z m2184 -622 c0 -4 12 -7 28 -6 39 2 58
-6 40 -17 -10 -7 -9 -9 5 -9 9 0 17 5 17 10 0 7 6 8 16 2 9 -5 37 -8 63 -6 59
5 53 3 -106 -41 -73 -20 -137 -34 -143 -30 -5 3 -10 2 -10 -3 0 -6 -14 -7 -35
-2 -23 5 -35 4 -35 -3 0 -6 -7 -2 -16 9 -11 14 -17 16 -21 6 -4 -10 -8 -9 -19
5 -8 11 -17 14 -21 8 -11 -14 -43 -18 -43 -5 0 5 9 11 20 12 11 0 26 1 33 2 6
1 15 5 18 9 5 7 180 65 202 66 4 1 7 -3 7 -7z"/>
<path d="M3023 7968 c18 -39 39 -75 47 -79 45 -24 732 -355 825 -397 129 -59
357 -156 470 -200 200 -79 484 -185 630 -235 137 -48 234 -84 562 -208 29 -11
58 -17 64 -13 7 4 9 3 6 -3 -4 -7 27 -24 76 -44 206 -82 821 -411 909 -486 9
-8 22 -12 28 -8 6 3 9 2 8 -3 -4 -15 211 -164 224 -156 6 4 8 3 4 -4 -10 -16
15 -27 26 -11 8 11 9 11 5 -3 -4 -12 30 -43 131 -120 136 -102 376 -298 504
-410 41 -36 72 -57 79 -52 7 4 9 3 6 -3 -8 -13 27 -46 37 -36 4 5 6 3 4 -4 -4
-15 162 -164 175 -156 5 3 7 2 4 -4 -4 -6 98 -104 225 -219 296 -268 305 -276
311 -267 2 5 2 3 1 -4 -2 -6 88 -96 199 -200 295 -274 311 -289 303 -275 -4 6
-2 12 4 12 6 0 9 4 5 10 -3 5 -12 7 -19 4 -7 -3 -18 2 -25 9 -9 12 -7 15 14
19 14 3 25 1 25 -3 0 -5 7 -9 16 -9 14 0 14 3 4 15 -7 8 -9 15 -5 15 4 0 2 6
-4 14 -9 11 -9 15 0 18 8 3 7 9 -5 20 -9 9 -16 20 -16 25 0 5 -21 29 -47 53
-26 25 -41 37 -34 28 8 -11 9 -18 3 -18 -6 0 -14 10 -18 22 -7 24 -112 124
-126 121 -4 -2 -7 0 -5 5 3 12 -243 237 -259 236 -7 -1 -12 2 -9 6 6 10 -70
82 -79 73 -4 -5 -6 -1 -4 7 2 8 -3 14 -9 13 -7 -2 -12 3 -10 10 1 6 -4 11 -10
10 -7 -2 -12 3 -10 10 1 6 -6 11 -15 11 -10 -1 -16 2 -13 6 8 12 -114 122
-126 114 -7 -4 -9 -3 -6 3 3 5 -12 27 -33 48 -22 22 -40 33 -40 26 0 -7 -5 -9
-10 -6 -6 4 -8 10 -5 15 7 12 -84 95 -102 94 -7 -1 -11 2 -8 6 7 11 -30 41
-39 33 -4 -5 -6 -1 -4 7 2 8 -3 14 -9 13 -7 -2 -12 3 -10 10 1 6 -4 11 -10 10
-7 -2 -12 3 -10 10 1 6 -4 11 -10 10 -7 -2 -12 0 -10 5 4 12 -81 84 -93 77 -6
-4 -7 1 -3 11 5 14 3 16 -11 11 -9 -4 -15 -3 -12 2 8 12 -29 43 -39 34 -4 -5
-5 -3 -2 3 8 14 -79 88 -93 79 -6 -4 -9 -1 -8 7 2 7 -3 12 -9 11 -7 -2 -12 3
-10 10 1 6 -4 11 -10 10 -7 -2 -12 3 -10 10 1 6 -4 11 -10 10 -7 -2 -13 1 -13
6 0 4 -27 31 -60 60 -39 34 -60 47 -60 37 0 -9 4 -15 8 -13 4 1 19 -9 33 -23
21 -22 23 -28 12 -38 -7 -7 -19 -10 -26 -7 -6 4 -4 0 7 -9 18 -14 18 -15 -3
-13 -11 1 -21 7 -21 14 0 17 -17 25 -26 12 -4 -8 -3 -9 4 -5 7 4 12 3 12 -2 0
-17 -27 -21 -47 -7 -10 7 -18 19 -18 27 0 7 -7 13 -15 13 -14 0 -20 7 -20 23
0 4 5 0 10 -8 5 -8 10 -10 10 -4 0 6 6 11 14 11 8 0 15 -3 14 -6 -2 -18 3 -31
13 -31 5 0 8 4 5 9 -3 5 1 11 8 14 8 3 17 2 20 -4 2 -5 3 -4 2 3 -2 7 -9 13
-17 13 -17 0 -34 24 -24 33 4 4 10 1 12 -5 7 -19 20 -16 18 5 -2 27 -16 44
-31 38 -8 -3 -13 0 -11 7 1 7 -4 11 -10 10 -7 -2 -12 2 -10 8 3 17 -160 140
-178 133 -8 -3 -12 -11 -8 -18 3 -6 1 -6 -8 2 -7 6 -20 12 -29 11 -10 0 -11
-2 -2 -6 6 -2 12 -10 12 -16 0 -6 -8 -3 -17 6 -16 16 -16 19 -3 28 12 8 10 9
-7 4 -24 -7 -33 9 -10 18 7 4 6 6 -4 6 -10 1 -20 -10 -23 -25 -4 -15 -10 -24
-13 -21 -3 3 -1 19 5 35 8 24 7 29 -6 29 -9 0 -23 -6 -30 -14 -19 -18 -30 -16
-37 7 -3 11 -11 20 -16 20 -5 0 -9 5 -9 11 0 6 5 7 13 2 18 -11 37 -12 37 -2
0 5 -4 9 -10 9 -5 0 -10 5 -10 10 0 6 13 1 29 -11 16 -12 34 -18 41 -14 7 5
22 -3 36 -20 12 -15 28 -25 34 -23 7 2 -16 25 -50 51 -33 26 -66 45 -72 41 -6
-4 -8 -3 -5 3 8 13 -70 66 -84 58 -5 -4 -8 -1 -7 7 2 7 -5 12 -14 12 -10 -1
-16 2 -13 6 7 11 -74 62 -87 54 -6 -4 -8 -3 -5 3 8 13 -130 106 -145 97 -6 -4
-9 -3 -5 2 13 22 -602 357 -773 422 -55 20 -55 20 -52 59 6 67 68 236 146 390
72 144 74 150 49 145 -18 -3 -24 -1 -19 7 4 6 2 11 -3 11 -6 0 -11 -3 -11 -7
0 -5 -16 -9 -35 -9 -19 -1 -35 3 -35 9 0 6 -19 -28 -42 -74 -23 -46 -41 -92
-40 -102 0 -10 -4 -15 -10 -11 -7 5 -9 1 -5 -9 9 -23 -10 -70 -24 -61 -7 4
-10 1 -7 -7 3 -8 0 -21 -6 -29 -18 -22 -58 -158 -51 -170 3 -6 1 -10 -4 -10
-6 0 -11 -6 -11 -12 0 -28 -16 -39 -41 -29 -43 17 -401 149 -489 179 -180 62
-400 142 -509 186 -63 25 -118 46 -123 46 -4 0 -51 18 -104 41 -52 22 -102 38
-110 35 -8 -3 -17 1 -21 9 -3 10 -12 13 -24 10 -12 -4 -18 -2 -17 5 2 6 -19
20 -46 31 -27 11 -67 28 -90 38 -159 73 -276 128 -535 252 -90 43 -168 76
-174 72 -5 -3 -7 -2 -4 4 3 5 -24 23 -61 40 -158 74 -204 94 -252 113 -28 11
-53 20 -55 20 -2 0 10 -32 28 -72z"/>
<path d="M7983 7758 c1 -16 5 -28 9 -28 4 0 7 -11 6 -24 -1 -14 -6 -22 -10
-20 -4 3 -25 6 -48 9 l-41 4 32 -57 c18 -31 45 -75 60 -97 38 -56 138 -163
139 -147 0 6 -4 12 -10 12 -5 0 -10 5 -10 11 0 5 4 8 9 4 5 -3 19 7 32 22 12
16 19 20 16 10 -5 -14 -2 -16 21 -12 26 5 26 5 4 -5 -13 -5 -28 -8 -33 -4 -5
3 -9 1 -9 -5 0 -5 6 -12 13 -15 6 -3 3 -4 -8 -1 -16 4 -20 -1 -21 -20 -1 -18
16 -40 71 -89 186 -168 373 -301 410 -290 14 4 16 3 7 -4 -16 -11 41 -45 203
-120 134 -62 208 -89 390 -140 154 -44 234 -62 268 -61 21 0 21 1 2 8 -11 5
-23 7 -27 5 -4 -3 -10 1 -14 7 -4 8 5 9 30 6 34 -4 36 -3 35 22 0 32 -38 124
-39 96 0 -17 -2 -17 -10 -5 -7 11 -9 8 -8 -15 1 -16 7 -33 13 -37 6 -5 6 -8
-2 -8 -15 0 -23 12 -25 43 -1 16 -7 23 -15 20 -15 -6 -17 -23 -3 -23 6 0 10
-4 10 -8 0 -4 -11 -8 -25 -8 -19 0 -22 3 -13 13 6 8 8 16 4 20 -3 3 -6 1 -6
-5 0 -6 -10 -12 -22 -14 -16 -2 -22 -9 -20 -20 2 -11 -3 -18 -14 -18 -11 0
-15 -6 -11 -20 3 -11 1 -20 -4 -20 -5 0 -9 5 -9 11 0 5 -4 8 -8 5 -17 -10 -87
19 -88 36 -1 10 3 15 8 12 5 -3 12 3 15 15 5 18 26 27 56 22 4 0 7 3 7 7 0 4
-24 15 -52 24 -225 71 -294 97 -396 148 -65 31 -141 71 -170 89 -29 17 -58 28
-64 25 -6 -4 -8 -2 -5 3 4 6 -6 19 -21 28 -82 53 -257 193 -346 277 -22 20
-44 34 -49 31 -6 -3 -7 -1 -3 6 5 7 -12 35 -42 69 -53 62 -130 170 -155 217
l-15 30 1 -27z"/>
<path d="M12466 7687 c-16 -28 -49 -83 -73 -120 -24 -38 -39 -66 -33 -62 6 3
7 0 4 -9 -3 -9 -11 -13 -16 -9 -7 4 -9 -3 -6 -19 3 -19 0 -24 -15 -26 -11 0
-30 -11 -41 -24 l-21 -22 21 17 c21 17 22 17 27 -3 4 -16 2 -20 -9 -16 -7 3
-23 -4 -34 -16 -11 -12 -20 -18 -20 -14 0 5 -40 -30 -90 -77 -49 -47 -127
-116 -174 -153 -47 -37 -82 -72 -79 -77 3 -6 1 -7 -5 -3 -6 3 -38 -11 -72 -33
-59 -38 -254 -138 -355 -181 -27 -12 -40 -19 -27 -17 12 3 22 2 22 -3 0 -4 13
-10 29 -13 34 -7 49 -43 21 -50 -10 -3 -23 0 -29 6 -8 8 -15 7 -23 -2 -10 -11
-10 -13 0 -7 6 4 12 3 12 -2 0 -10 -41 -24 -48 -17 -3 3 1 11 8 20 10 12 10
15 -4 15 -9 0 -16 -4 -16 -10 0 -5 -5 -10 -11 -10 -5 0 -7 5 -4 10 3 6 -4 10
-16 10 -19 0 -20 -2 -8 -17 13 -15 12 -15 -6 -6 -13 8 -26 8 -37 2 -10 -6 -24
-7 -30 -3 -7 4 -8 3 -4 -4 4 -7 3 -12 -3 -12 -5 0 -12 17 -14 38 -3 35 -4 34
-5 -9 -3 -80 30 -86 197 -33 207 65 436 193 626 349 156 128 324 312 308 338
-3 6 -1 7 5 3 10 -6 39 32 128 168 14 21 22 41 18 45 -4 3 -9 1 -11 -5 -2 -6
-10 -19 -17 -29 -10 -14 -15 -15 -21 -5 -5 9 -4 11 3 6 7 -4 12 -2 12 3 0 6
-4 11 -10 11 -5 0 -10 5 -10 11 0 5 6 7 13 3 9 -6 9 -5 0 7 -6 8 -13 36 -14
62 -2 26 -5 47 -8 47 -3 0 -19 -24 -35 -53z"/>
<path d="M11303 7110 c-46 -19 -64 -80 -27 -94 8 -3 14 -11 14 -17 0 -7 -11 0
-24 14 l-24 26 -25 -27 c-13 -15 -23 -33 -22 -40 2 -8 1 -8 -2 -1 -3 6 -43
-25 -92 -74 -47 -46 -113 -106 -146 -133 -33 -26 -59 -52 -57 -57 1 -4 -2 -6
-7 -3 -5 3 -40 -12 -77 -34 -38 -22 -63 -40 -56 -40 6 0 12 -4 12 -10 0 -5 -9
-10 -20 -10 -11 0 -20 -6 -20 -12 0 -10 -2 -10 -8 -1 -5 8 -13 9 -22 3 -10 -7
-11 -10 -2 -10 6 0 12 -4 12 -10 0 -13 -37 -13 -44 -1 -4 5 0 12 6 14 10 4 10
6 0 6 -7 1 -11 5 -7 10 3 5 1 12 -4 15 -5 3 -9 -13 -9 -35 -1 -27 3 -39 11
-36 8 3 12 -6 12 -23 l0 -28 -24 24 c-33 33 -49 31 -43 -6 3 -18 0 -30 -7 -30
-12 0 -13 2 -15 48 -1 18 1 35 6 38 4 3 8 10 8 15 0 23 -20 -5 -30 -41 -14
-51 -4 -89 25 -96 44 -11 266 92 394 183 87 63 263 233 257 250 -3 7 0 12 7
10 7 -1 13 10 15 26 2 15 -2 27 -8 27 -6 0 -4 8 6 17 13 13 19 14 22 5 2 -6
10 -12 18 -12 8 0 11 6 8 15 -4 8 -1 15 5 15 6 0 11 -8 11 -17 0 -10 4 -14 8
-8 9 13 32 18 32 7 0 -5 -10 -13 -22 -19 -15 -6 -18 -12 -10 -17 7 -4 12 -2
12 3 0 6 6 11 14 11 8 0 19 12 24 28 10 25 11 23 13 -23 1 -36 3 -42 6 -20 10
66 -36 186 -70 184 -7 0 -22 -4 -34 -9z"/>
<path d="M9482 6986 c7 -8 15 -14 18 -14 14 2 70 -25 70 -34 0 -5 5 -6 10 -3
6 3 10 2 10 -3 0 -5 10 -14 23 -21 22 -11 22 -11 -3 -7 -24 5 -24 4 -6 -9 17
-13 18 -15 3 -15 -9 0 -17 -3 -17 -7 0 -7 -27 -8 -74 -4 -4 1 -6 8 -3 16 4 8
2 17 -4 20 -5 4 -8 1 -7 -7 2 -7 -4 -12 -12 -10 -20 3 22 -29 90 -69 102 -61
205 -131 275 -189 39 -31 77 -55 85 -53 12 4 13 3 1 -5 -11 -8 -7 -18 21 -54
20 -23 51 -68 71 -98 47 -74 59 -84 101 -76 71 14 337 220 319 249 -3 5 -1 7
4 4 13 -8 46 27 36 38 -5 4 -3 5 3 2 15 -8 38 18 29 33 -4 6 -1 9 6 8 7 -2 18
7 24 20 5 12 14 22 19 22 4 0 2 8 -5 17 -12 15 -12 16 3 10 10 -3 20 -3 22 2
3 4 0 8 -7 8 -7 0 -19 2 -27 4 -10 3 -14 -2 -12 -15 3 -17 2 -18 -12 -7 -13
11 -16 11 -16 1 0 -8 -2 -11 -5 -8 -8 8 6 39 15 33 12 -7 26 16 33 53 4 21 3
31 -3 27 -6 -3 -10 1 -10 10 0 9 4 13 10 10 6 -3 7 1 4 9 -8 22 -9 21 -35 -20
-18 -30 -20 -38 -8 -46 11 -8 10 -9 -3 -4 -20 6 -62 -40 -51 -57 3 -5 1 -7 -5
-3 -6 3 -20 -8 -33 -25 -12 -17 -72 -74 -133 -126 -61 -53 -110 -98 -109 -102
1 -3 -10 -6 -24 -6 -19 0 -33 12 -59 50 -46 71 -173 198 -190 191 -8 -3 -13
-1 -11 3 5 21 -214 168 -233 156 -6 -4 -9 -1 -8 5 2 6 -37 33 -87 60 -95 52
-114 59 -93 36z"/>
<path d="M13568 5053 c-100 -162 -254 -443 -242 -443 3 0 -2 -7 -11 -16 -13
-13 -14 -19 -4 -25 10 -6 9 -13 -5 -33 -9 -15 -21 -24 -26 -21 -6 3 -7 -1 -4
-10 4 -10 2 -15 -7 -13 -9 2 -13 -4 -11 -16 2 -11 -5 -27 -18 -36 -21 -16 -23
-26 -16 -90 6 -47 6 -48 16 -25 8 18 9 17 9 -6 1 -30 36 -47 45 -22 3 8 1 11
-4 8 -6 -3 -10 -1 -10 4 0 6 8 11 18 11 14 0 15 2 2 10 -13 8 -12 10 2 10 12
0 34 33 72 108 30 59 70 134 90 167 20 33 34 65 31 73 -2 7 -1 10 5 7 5 -3 17
9 26 27 9 18 46 84 82 147 52 91 62 115 51 123 -11 8 -10 9 3 4 11 -3 21 2 27
13 7 13 6 18 -4 18 -8 0 -12 -4 -9 -9 3 -4 -2 -8 -10 -8 -9 0 -16 5 -16 11 0
5 -6 7 -12 4 -7 -4 -6 -1 2 7 18 16 24 44 11 53 -6 3 -8 12 -4 20 3 10 -1 15
-12 15 -9 0 -13 5 -10 10 3 6 4 10 1 10 -2 0 -29 -39 -58 -87z"/>
<path d="M13163 4304 c-25 -50 -38 -91 -37 -112 1 -27 -1 -30 -12 -21 -19 16
-18 4 2 -16 9 -8 17 -27 18 -40 1 -24 16 -37 16 -15 0 6 6 5 14 -2 10 -9 11
-15 2 -20 -7 -5 -6 -8 5 -8 14 0 65 87 55 97 -2 2 -7 -5 -11 -16 -8 -26 -20
-27 -22 -3 0 9 -2 47 -3 85 -2 37 -7 67 -13 67 -6 0 -7 3 -4 6 4 4 13 1 22 -6
9 -7 18 -10 22 -6 3 3 1 6 -6 6 -7 0 -10 4 -7 9 4 5 0 11 -6 14 -10 3 -8 8 4
18 12 9 15 19 9 28 -6 9 -20 -9 -48 -65z"/>
<path d="M8945 4311 c22 -23 90 -87 150 -141 l110 -98 78 -3 c52 -3 77 -1 77
7 0 18 -12 24 -31 14 -12 -7 -20 -6 -25 2 -4 6 -3 8 3 5 6 -4 14 0 17 9 9 23
8 27 -9 20 -8 -3 -14 0 -12 7 1 7 -4 11 -11 9 -8 -1 -11 2 -8 6 7 12 -28 44
-38 35 -4 -5 -6 -1 -4 7 2 8 -3 14 -9 13 -7 -2 -12 0 -10 5 1 4 -2 8 -6 9 -5
1 -16 11 -26 22 -13 15 -31 21 -67 22 -27 1 -53 0 -59 -1 -32 -8 -62 5 -108
47 l-52 47 40 -43z"/>
</g>
</svg>
